<?xml version="1.0" encoding="UTF-8" standalone="no"?>
<!DOCTYPE svg PUBLIC "-//W3C//DTD SVG 1.1//EN"
"http://www.w3.org/Graphics/SVG/1.1/DTD/svg11.dtd">
<svg viewBox="0 0 825 1191" version="1.1" xmlns="http://www.w3.org/2000/svg" xmlns:xlink="http://www.w3.org/1999/xlink">
<defs>
<clipPath id="c0_1"><path d="M723.2,354.6L97.4,350.7c-3.9,0,-7.3,.1,-10.4,.1c-18.7,0,-22,-1.7,-22,-25.7c-.3,-70.9,.3,-165.6,0,-236.5C65,60.7,65.4,47.7,93.3,47.7H732.8c27.9,0,26.6,9.2,26.6,37.1c0,67.3,1.4,169.1,-.5,234.6c0,27.9,-7.8,35.2,-35.7,35.2Z"/></clipPath>
<clipPath id="c1_1"><path d="M705.8,246.4V216.9H737v29.5Z"/></clipPath>
<clipPath id="c2_1"><path d="M445.7,282.1V262.2h48.4v19.9Z"/></clipPath>
<clipPath id="c3_1"><path d="M0,36.7V0H825V36.7Z"/></clipPath>
<clipPath id="c4_1"><path d="M82.7,706.2V547.3H400.8V706.2Z"/></clipPath>
<clipPath id="c5_1"><path d="M469.9,695.4V547.3H691.7V695.4Z"/></clipPath>
<style type="text/css"><![CDATA[
.g0_1{
fill: #E7E6E6;
}
.g1_1{
fill: #FFFFFF;
}
.g2_1{
fill: #4472C4;
}
.g3_1{
fill: none;
stroke: #0070C0;
stroke-width: 1.527;
stroke-linecap: butt;
stroke-linejoin: miter;
stroke-miterlimit: 8;
}
.g4_1{
fill: none;
stroke: #A6A6A6;
stroke-width: 1.527;
stroke-linecap: butt;
stroke-linejoin: miter;
stroke-miterlimit: 8;
}
.g5_1{
fill: none;
stroke: #D0CECE;
stroke-width: 0.381;
stroke-linecap: butt;
stroke-linejoin: miter;
stroke-miterlimit: 8;
}
.g6_1{
fill: #F1F1F1;
}
.g7_1{
fill: #FF0000;
}
.g8_1{
fill: none;
stroke: #FFFFFF;
stroke-width: 1.527;
stroke-linecap: butt;
stroke-linejoin: miter;
stroke-miterlimit: 8;
}
]]></style>
</defs>
<path d="M0,1191.7H825V0H0V1191.7Z" class="g0_1"/>
<image clip-path="url(#c0_1)" preserveAspectRatio="none" x="65" y="48" width="695" height="307" xlink:href="img/1.jpg"/>
<path fill-rule="evenodd" d="M62.7,205.9H759.9V319.3h-.1l.1,9.9c.1,32.8,0,65.5,-1,91c0,21.8,-7.8,27.5,-35.8,27.5l-627.8,-3c-28,0,-32.5,1.8,-32.5,-20c-.2,-27.7,-.1,-60,0,-92.3V319.3h-.1Z" class="g1_1"/>
<image clip-path="url(#c1_1)" preserveAspectRatio="none" x="706" y="217" width="31" height="29" xlink:href="img/2.jpg"/>
<image clip-path="url(#c2_1)" preserveAspectRatio="none" x="446" y="262" width="48" height="20" xlink:href="img/3.png"/>
<path fill-rule="evenodd" d="M93.9,403.5h49.4c8.4,0,15.1,6.2,15.1,13.8c0,7.6,-6.7,13.7,-15.1,13.7H93.9c-8.3,0,-15.1,-6.1,-15.1,-13.7c0,-7.6,6.8,-13.8,15.1,-13.8Z" class="g2_1"/>
<path d="M93.9,403.5h49.4c8.4,0,15.1,6.2,15.1,13.8c0,7.6,-6.7,13.7,-15.1,13.7H93.9c-8.3,0,-15.1,-6.1,-15.1,-13.7c0,-7.6,6.8,-13.8,15.1,-13.8Z" class="g3_1"/>
<path fill-rule="evenodd" d="M183.9,403.5h49.3c8.3,0,15,6.2,15,13.8c0,7.6,-6.7,13.7,-15,13.7H183.9c-8.3,0,-15.1,-6.1,-15.1,-13.7c0,-7.6,6.8,-13.8,15.1,-13.8Z" class="g1_1"/>
<path d="M183.9,403.5h49.3c8.3,0,15,6.2,15,13.8c0,7.6,-6.7,13.7,-15,13.7H183.9c-8.3,0,-15.1,-6.1,-15.1,-13.7c0,-7.6,6.8,-13.8,15.1,-13.8Z" class="g4_1"/>
<path fill-rule="evenodd" d="M62.8,910.8c0,-22.6,.4,-33.2,28.3,-33.2H730.6c27.9,0,26.6,7.5,26.6,30.1c0,54.5,1.4,137,-.5,190c0,22.6,-7.8,28.5,-35.7,28.5L95.2,1123.1c-28,0,-32.4,1.8,-32.4,-20.8c-.3,-57.4,.3,-134.1,0,-191.5Z" class="g1_1"/>
<path d="M62.8,910.8c0,-22.6,.4,-33.2,28.3,-33.2H730.6c27.9,0,26.6,7.5,26.6,30.1c0,54.5,1.4,137,-.5,190c0,22.6,-7.8,28.5,-35.7,28.5L95.2,1123.1c-28,0,-32.4,1.8,-32.4,-20.8c-.3,-57.4,.3,-134.1,0,-191.5Z" class="g5_1"/>
<path fill-rule="evenodd" d="M62.8,514.4c0,-37,.4,-54.2,28.3,-54.2H730.6c27.9,0,26.6,12.2,26.6,49.1c0,89.1,1.4,223.8,-.5,310.4c0,36.9,-7.8,46.6,-35.7,46.6L95.2,861.2c-28,0,-32.4,3,-32.4,-34c-.3,-93.7,.3,-219.1,0,-312.8Z" class="g1_1"/>
<path d="M62.8,514.4c0,-37,.4,-54.2,28.3,-54.2H730.6c27.9,0,26.6,12.2,26.6,49.1c0,89.1,1.4,223.8,-.5,310.4c0,36.9,-7.8,46.6,-35.7,46.6L95.2,861.2c-28,0,-32.4,3,-32.4,-34c-.3,-93.7,.3,-219.1,0,-312.8Z" class="g5_1"/>
<path fill-rule="evenodd" d="M75.6,552.5c0,-26.5,.2,-39,13.5,-39H395.3c13.4,0,12.7,8.8,12.7,35.4c0,64.2,.7,161.1,-.2,223.5c0,26.6,-3.7,33.5,-17.1,33.5L91.1,802.3c-13.4,0,-15.5,2.1,-15.5,-24.5c-.2,-67.5,.1,-157.8,0,-225.3Z" class="g1_1"/>
<path d="M75.6,552.5c0,-26.5,.2,-39,13.5,-39H395.3c13.4,0,12.7,8.8,12.7,35.4c0,64.2,.7,161.1,-.2,223.5c0,26.6,-3.7,33.5,-17.1,33.5L91.1,802.3c-13.4,0,-15.5,2.1,-15.5,-24.5c-.2,-67.5,.1,-157.8,0,-225.3Z" class="g5_1"/>
<path fill-rule="evenodd" d="M75.4,707.1H408.1v50.4c0,13.4,0,26.8,-.5,37.2c0,8.9,-3.7,11.2,-17.1,11.2L90.9,804.7c-13.4,0,-15.5,.7,-15.5,-8.2c-.1,-11.3,0,-24.5,0,-37.7v-5.3Z" class="g6_1"/>
<image preserveAspectRatio="none" x="451" y="294" width="34" height="34" xlink:href="img/4.jpg"/>
<image clip-path="url(#c3_1)" preserveAspectRatio="none" x="0" y="0" width="825" height="37" xlink:href="img/5.png"/>
<path fill-rule="evenodd" d="M664,18c0,-5.9,4.8,-10.7,10.6,-10.7c5.8,0,10.5,4.8,10.5,10.7c0,5.8,-4.7,10.6,-10.5,10.6C668.8,28.6,664,23.8,664,18Z" class="g1_1"/>
<image clip-path="url(#c4_1)" preserveAspectRatio="none" x="83" y="547" width="318" height="159" xlink:href="img/6.png"/>
<path fill-rule="evenodd" d="M415.5,551.8c0,-26.6,.2,-39,13.5,-39H735c13.4,0,12.8,8.8,12.8,35.4c0,64.1,.6,161.1,-.3,223.4c0,26.6,-3.7,33.6,-17.1,33.6L431,801.6c-13.4,0,-15.5,2.1,-15.5,-24.5c-.2,-67.5,.1,-157.8,0,-225.3Z" class="g1_1"/>
<path d="M415.5,551.8c0,-26.6,.2,-39,13.5,-39H735c13.4,0,12.8,8.8,12.8,35.4c0,64.1,.6,161.1,-.3,223.4c0,26.6,-3.7,33.6,-17.1,33.6L431,801.6c-13.4,0,-15.5,2.1,-15.5,-24.5c-.2,-67.5,.1,-157.8,0,-225.3Z" class="g5_1"/>
<path fill-rule="evenodd" d="M415.2,706.4H748v50.4c0,13.4,0,26.7,-.5,37.2c0,8.9,-3.7,11.2,-17.1,11.2L430.8,804c-13.4,0,-15.5,.7,-15.5,-8.2c-.1,-11.3,0,-24.5,0,-37.7v-5.4h-.1Z" class="g6_1"/>
<image clip-path="url(#c5_1)" preserveAspectRatio="none" x="470" y="547" width="222" height="148" xlink:href="img/7.jpg"/>
<image preserveAspectRatio="none" x="96" y="144" width="112" height="112" xlink:href="img/8.png"/>
<path fill-rule="evenodd" d="M189,243.3c0,-6.1,4.9,-11,11,-11c6.1,0,11,4.9,11,11c0,6.1,-4.9,11,-11,11c-6.1,0,-11,-4.9,-11,-11Z" class="g7_1"/>
<path d="M189,243.3c0,-6.1,4.9,-11,11,-11c6.1,0,11,4.9,11,11c0,6.1,-4.9,11,-11,11c-6.1,0,-11,-4.9,-11,-11Z" class="g8_1"/>
</svg>