<?xml version="1.0" encoding="UTF-8" standalone="no"?>
<!DOCTYPE svg PUBLIC "-//W3C//DTD SVG 1.1//EN"
"http://www.w3.org/Graphics/SVG/1.1/DTD/svg11.dtd">
<svg viewBox="0 0 825 1191" version="1.1" xmlns="http://www.w3.org/2000/svg" xmlns:xlink="http://www.w3.org/1999/xlink">
<defs>
<clipPath id="c0"><path d="M0,36.7V0H825V36.7Z"/></clipPath>
<clipPath id="c1"><path d="M82.9,1146v-60.7H317V1146Z"/></clipPath>
<clipPath id="c2"><path d="M93.5,437.1V400h35.6v37.1Z"/></clipPath>
<clipPath id="c3"><path d="M76.1,194.2V171.8h49.4v22.4Z"/></clipPath>
<clipPath id="c4"><path d="M83.4,755.2V710.6h44.4v44.6Z"/></clipPath>
<clipPath id="c5"><path d="M81.4,284.6V262.2h49.4v22.4Z"/></clipPath>
<style type="text/css"><![CDATA[
.g0{
fill: #E7E6E6;
}
.g1{
fill: #FFFFFF;
}
.g2{
fill: none;
stroke: #D0CECE;
stroke-width: 0.381;
stroke-linecap: butt;
stroke-linejoin: miter;
stroke-miterlimit: 8;
}
.g3{
fill: none;
stroke: #D0CECE;
stroke-width: 0.763;
stroke-linecap: butt;
stroke-linejoin: miter;
stroke-miterlimit: 8;
}
.g4{
fill: #AFABAB;
}
.g5{
fill: none;
stroke: #AFABAB;
stroke-width: 1.527;
stroke-linecap: butt;
stroke-linejoin: miter;
stroke-miterlimit: 8;
}
.g6{
fill: none;
stroke: #E7E6E6;
stroke-width: 2.291;
stroke-linecap: butt;
stroke-linejoin: miter;
stroke-miterlimit: 8;
}
]]></style>
</defs>
<path d="M0,1191.7H825V0H0V1191.7Z" class="g0"/>
<path fill-rule="evenodd" d="M65.2,89.5c0,-25,.4,-36.7,28.3,-36.7H732.8c27.9,0,26.6,8.3,26.6,33.3c0,60.4,1.4,151.8,-.5,210.5c0,25,-7.8,31.6,-35.7,31.6L97.5,324.7c-27.9,0,-32.3,2.1,-32.3,-23c-.3,-63.6,.3,-148.6,0,-212.2Z" class="g1"/>
<path d="M65.2,89.5c0,-25,.4,-36.7,28.3,-36.7H732.8c27.9,0,26.6,8.3,26.6,33.3c0,60.4,1.4,151.8,-.5,210.5c0,25,-7.8,31.6,-35.7,31.6L97.5,324.7c-27.9,0,-32.3,2.1,-32.3,-23c-.3,-63.6,.3,-148.6,0,-212.2Z" class="g2"/>
<path d="M80.5,194.2H723.1" class="g3"/>
<image clip-path="url(#c0)" preserveAspectRatio="none" x="0" y="0" width="825" height="37" xlink:href="img/1.png"/>
<path fill-rule="evenodd" d="M664,18c0,-5.9,4.8,-10.7,10.6,-10.7c5.8,0,10.5,4.8,10.5,10.7c0,5.8,-4.7,10.6,-10.5,10.6C668.8,28.6,664,23.8,664,18Z" class="g1"/>
<path fill-rule="evenodd" d="M63.2,1056.6c0,-11.8,.3,-17.3,28.2,-17.3H730.9c28,0,26.7,3.9,26.7,15.7c0,28.4,1.4,71.4,-.5,99.1c0,11.7,-7.8,14.8,-35.7,14.8L95.5,1167.3c-27.9,0,-32.3,1,-32.3,-10.8c-.4,-29.9,.3,-70,0,-99.9Z" class="g1"/>
<path d="M63.2,1056.6c0,-11.8,.3,-17.3,28.2,-17.3H730.9c28,0,26.7,3.9,26.7,15.7c0,28.4,1.4,71.4,-.5,99.1c0,11.7,-7.8,14.8,-35.7,14.8L95.5,1167.3c-27.9,0,-32.3,1,-32.3,-10.8c-.4,-29.9,.3,-70,0,-99.9Z" class="g2"/>
<image clip-path="url(#c1)" preserveAspectRatio="none" x="83" y="1085" width="234" height="61" xlink:href="img/2.jpg"/>
<path fill-rule="evenodd" d="M66.3,836.9c0,-20.3,.4,-29.9,28.3,-29.9H734.1c27.9,0,26.6,6.8,26.6,27.1c0,49.2,1.4,123.5,-.5,171.3c0,20.3,-7.8,25.7,-35.7,25.7L98.6,1028.3c-27.9,0,-32.3,1.6,-32.3,-18.7c-.3,-51.8,.3,-120.9,0,-172.7Z" class="g1"/>
<path d="M66.3,836.9c0,-20.3,.4,-29.9,28.3,-29.9H734.1c27.9,0,26.6,6.8,26.6,27.1c0,49.2,1.4,123.5,-.5,171.3c0,20.3,-7.8,25.7,-35.7,25.7L98.6,1028.3c-27.9,0,-32.3,1.6,-32.3,-18.7c-.3,-51.8,.3,-120.9,0,-172.7Z" class="g2"/>
<path fill-rule="evenodd" d="M66.3,378.1c0,-25.8,.4,-37.8,28.3,-37.8H734.1c27.9,0,26.6,8.5,26.6,34.3c0,62.2,1.4,156.1,-.5,216.6c0,25.7,-7.8,32.5,-35.7,32.5L98.6,620.2c-27.9,0,-32.3,2,-32.3,-23.7c-.3,-65.5,.3,-153,0,-218.4Z" class="g1"/>
<path d="M66.3,378.1c0,-25.8,.4,-37.8,28.3,-37.8H734.1c27.9,0,26.6,8.5,26.6,34.3c0,62.2,1.4,156.1,-.5,216.6c0,25.7,-7.8,32.5,-35.7,32.5L98.6,620.2c-27.9,0,-32.3,2,-32.3,-23.7c-.3,-65.5,.3,-153,0,-218.4Z" class="g2"/>
<image clip-path="url(#c2)" preserveAspectRatio="none" x="94" y="400" width="35" height="37" xlink:href="img/3.png"/>
<path fill-rule="evenodd" d="M100.3,470c0,2.4,1.9,4.3,4.3,4.3c2.4,0,4.3,-1.9,4.3,-4.3c0,-2.4,-1.9,-4.3,-4.3,-4.3c-2.4,0,-4.3,1.9,-4.3,4.3Z" class="g4"/>
<path d="M100.3,470c0,2.4,1.9,4.3,4.3,4.3c2.4,0,4.3,-1.9,4.3,-4.3c0,-2.4,-1.9,-4.3,-4.3,-4.3c-2.4,0,-4.3,1.9,-4.3,4.3Z" class="g5"/>
<path fill-rule="evenodd" d="M65.2,654.6c0,-14.8,.4,-21.7,28.3,-21.7H732.8c27.9,0,26.6,4.9,26.6,19.7c0,35.7,1.4,89.7,-.5,124.4c0,14.8,-7.8,18.7,-35.7,18.7L97.5,793.6c-27.9,0,-32.3,1.2,-32.3,-13.6c-.3,-37.6,.3,-87.8,0,-125.4Z" class="g1"/>
<path d="M65.2,654.6c0,-14.8,.4,-21.7,28.3,-21.7H732.8c27.9,0,26.6,4.9,26.6,19.7c0,35.7,1.4,89.7,-.5,124.4c0,14.8,-7.8,18.7,-35.7,18.7L97.5,793.6c-27.9,0,-32.3,1.2,-32.3,-13.6c-.3,-37.6,.3,-87.8,0,-125.4Z" class="g2"/>
<image clip-path="url(#c3)" preserveAspectRatio="none" x="76" y="172" width="50" height="22" xlink:href="img/4.jpg"/>
<image clip-path="url(#c4)" preserveAspectRatio="none" x="83" y="711" width="45" height="44" xlink:href="img/5.jpg"/>
<path d="M104.6,550.7V492.3" class="g6"/>
<path fill-rule="evenodd" d="M99.2,562.6c0,2.3,1.9,4.3,4.2,4.3c2.3,0,4.2,-2,4.2,-4.3c0,-2.4,-1.9,-4.4,-4.2,-4.4c-2.3,0,-4.2,2,-4.2,4.4Z" class="g4"/>
<path d="M99.2,562.6c0,2.3,1.9,4.3,4.2,4.3c2.3,0,4.2,-2,4.2,-4.3c0,-2.4,-1.9,-4.4,-4.2,-4.4c-2.3,0,-4.2,2,-4.2,4.4Z" class="g5"/>
<image clip-path="url(#c5)" preserveAspectRatio="none" x="81" y="262" width="50" height="23" xlink:href="img/6.jpg"/>
</svg>