<?xml version="1.0" encoding="UTF-8" standalone="no"?>
<!DOCTYPE svg PUBLIC "-//W3C//DTD SVG 1.1//EN"
"http://www.w3.org/Graphics/SVG/1.1/DTD/svg11.dtd">
<svg viewBox="0 0 825 1191" version="1.1" xmlns="http://www.w3.org/2000/svg" xmlns:xlink="http://www.w3.org/1999/xlink">
<defs>
<clipPath id="c0"><path d="M0,1191.6V0H825V1191.6Z"/></clipPath>
<clipPath id="c1"><path d="M76,194.8V171.7h49.7v23.1Z"/></clipPath>
<clipPath id="c2"><path d="M81.4,285.2V262.1h49.7v23.1Z"/></clipPath>
<style type="text/css"><![CDATA[
.g0{
fill: #FFFFFF;
}
.g1{
fill: #E7E6E6;
}
.g2{
fill: none;
stroke: #D0CECE;
stroke-width: 0.389;
stroke-linecap: butt;
stroke-linejoin: miter;
stroke-miterlimit: 3;
}
.g3{
fill: none;
stroke: #D0CECE;
stroke-width: 0.779;
stroke-linecap: butt;
stroke-linejoin: miter;
stroke-miterlimit: 3;
}
.g4{
fill: #AFABAB;
}
.g5{
fill: none;
stroke: #AFABAB;
stroke-width: 1.515;
stroke-linecap: butt;
stroke-linejoin: miter;
stroke-miterlimit: 3;
}
.g6{
fill: none;
stroke: #E7E6E6;
stroke-width: 2.295;
stroke-linecap: butt;
stroke-linejoin: miter;
stroke-miterlimit: 3;
}
]]></style>
</defs>
<g clip-path="url(#c0)">
<path fill-rule="evenodd" d="M0,0H825V1191.6H0V0Z" class="g0"/>
<path fill-rule="evenodd" d="M0,0H825V1191.7H0V0Z" class="g1"/>
</g>
<path fill-rule="evenodd" d="M65,89.6c0,-25,.4,-36.7,28.3,-36.7H732.8c27.9,0,26.6,8.2,26.6,33.2c0,60.5,1.5,151.7,-.4,210.4c0,25,-7.9,31.6,-35.8,31.6L97.4,324.6c-27.9,0,-32.4,2.1,-32.4,-23c-.3,-63.5,.4,-148.5,0,-212Z" class="g0"/>
<path d="M65,89.6c0,-25,.4,-36.7,28.3,-36.7H732.8c27.9,0,26.6,8.2,26.6,33.2c0,60.5,1.5,151.7,-.4,210.4c0,25,-7.9,31.6,-35.8,31.6L97.4,324.6c-27.9,0,-32.4,2.1,-32.4,-23c-.3,-63.5,.4,-148.5,0,-212Z" class="g2"/>
<path d="M80.4,194.2H723.1" class="g3"/>
<image clip-path="url(#c0)" preserveAspectRatio="none" x="0" y="0" width="825" height="37" xlink:href="img/1.png"/>
<path fill-rule="evenodd" d="M664,17.9c0,-1.8,.5,-3.7,1.5,-5.3c.9,-1.6,2.2,-2.9,3.8,-3.9c1.6,-.9,3.5,-1.3,5.3,-1.3c1.9,0,3.7,.4,5.3,1.3c1.6,1,3,2.3,3.9,3.9c.9,1.6,1.4,3.5,1.4,5.3c0,1.9,-.5,3.7,-1.4,5.3c-.9,1.6,-2.3,3,-3.9,3.9c-1.6,.9,-3.4,1.4,-5.3,1.4c-1.8,0,-3.7,-.5,-5.3,-1.4c-1.6,-.9,-2.9,-2.3,-3.8,-3.9c-1,-1.6,-1.5,-3.4,-1.5,-5.3Z" class="g0"/>
<path fill-rule="evenodd" d="M63.1,1056.5c0,-11.8,.3,-17.3,28.2,-17.3H730.8c27.9,0,26.6,3.9,26.6,15.7c0,28.5,1.5,71.5,-.4,99.2c0,11.8,-7.9,14.9,-35.8,14.9L95.4,1167.3c-27.9,0,-32.3,1,-32.3,-10.8c-.3,-30,.3,-70,0,-100Z" class="g0"/>
<path d="M63.1,1056.5c0,-11.8,.3,-17.3,28.2,-17.3H730.8c27.9,0,26.6,3.9,26.6,15.7c0,28.5,1.5,71.5,-.4,99.2c0,11.8,-7.9,14.9,-35.8,14.9L95.4,1167.3c-27.9,0,-32.3,1,-32.3,-10.8c-.3,-30,.3,-70,0,-100Z" class="g2"/>
<image clip-path="url(#c0)" preserveAspectRatio="none" x="83" y="1085" width="234" height="61" xlink:href="img/2.jpg"/>
<path fill-rule="evenodd" d="M66.3,836.8c0,-20.3,.3,-29.9,28.2,-29.9H734c27.9,0,26.6,6.8,26.6,27.1c0,49.2,1.5,123.5,-.4,171.3c0,20.3,-7.9,25.7,-35.8,25.7L98.6,1028.2c-27.9,0,-32.3,1.6,-32.3,-18.7c-.3,-51.8,.3,-121,0,-172.7Z" class="g0"/>
<path d="M66.3,836.8c0,-20.3,.3,-29.9,28.2,-29.9H734c27.9,0,26.6,6.8,26.6,27.1c0,49.2,1.5,123.5,-.4,171.3c0,20.3,-7.9,25.7,-35.8,25.7L98.6,1028.2c-27.9,0,-32.3,1.6,-32.3,-18.7c-.3,-51.8,.3,-121,0,-172.7Z" class="g2"/>
<path fill-rule="evenodd" d="M66.3,378c0,-25.7,.3,-37.8,28.2,-37.8H734c27.9,0,26.6,8.5,26.6,34.3c0,62.2,1.5,156.1,-.4,216.6c0,25.8,-7.9,32.5,-35.8,32.5L98.6,620.1c-27.9,0,-32.3,2.1,-32.3,-23.7C66,530.9,66.6,443.5,66.3,378Z" class="g0"/>
<path d="M66.3,378c0,-25.7,.3,-37.8,28.2,-37.8H734c27.9,0,26.6,8.5,26.6,34.3c0,62.2,1.5,156.1,-.4,216.6c0,25.8,-7.9,32.5,-35.8,32.5L98.6,620.1c-27.9,0,-32.3,2.1,-32.3,-23.7C66,530.9,66.6,443.5,66.3,378Z" class="g2"/>
<image clip-path="url(#c0)" preserveAspectRatio="none" x="94" y="400" width="35" height="37" xlink:href="img/3.png"/>
<path fill-rule="evenodd" d="M100.4,470c0,.7,.2,1.4,.5,2.1c.4,.6,1,1.2,1.6,1.5c.7,.4,1.4,.7,2.1,.7c.8,0,1.5,-.3,2.2,-.7c.6,-.3,1.2,-.9,1.6,-1.5c.3,-.7,.5,-1.4,.5,-2.1c0,-.8,-.2,-1.5,-.5,-2.2c-.4,-.6,-1,-1.2,-1.6,-1.5c-.7,-.4,-1.4,-.6,-2.1,-.6c-.8,0,-1.5,.2,-2.2,.6c-.6,.3,-1.2,.9,-1.6,1.5c-.3,.7,-.5,1.4,-.5,2.2Z" class="g4"/>
<path d="M100.4,470c0,.7,.2,1.4,.5,2.1c.4,.6,1,1.2,1.6,1.5c.7,.4,1.4,.7,2.1,.7c.8,0,1.5,-.3,2.2,-.7c.6,-.3,1.2,-.9,1.6,-1.5c.3,-.7,.5,-1.4,.5,-2.1c0,-.8,-.2,-1.5,-.5,-2.2c-.4,-.6,-1,-1.2,-1.6,-1.5c-.7,-.4,-1.4,-.6,-2.1,-.6c-.8,0,-1.5,.2,-2.2,.6c-.6,.3,-1.2,.9,-1.6,1.5c-.3,.7,-.5,1.4,-.5,2.2Z" class="g5"/>
<path fill-rule="evenodd" d="M65,654.5c0,-14.8,.4,-21.7,28.3,-21.7H732.8c27.9,0,26.6,4.9,26.6,19.7c0,35.8,1.5,89.8,-.4,124.5c0,14.8,-7.9,18.7,-35.8,18.7l-625.8,-2C69.5,793.7,65,794.9,65,780c-.3,-37.5,.4,-87.8,0,-125.5Z" class="g0"/>
<path d="M65,654.5c0,-14.8,.4,-21.7,28.3,-21.7H732.8c27.9,0,26.6,4.9,26.6,19.7c0,35.8,1.5,89.8,-.4,124.5c0,14.8,-7.9,18.7,-35.8,18.7l-625.8,-2C69.5,793.7,65,794.9,65,780c-.3,-37.5,.4,-87.8,0,-125.5Z" class="g2"/>
<image clip-path="url(#c1)" preserveAspectRatio="none" x="76" y="172" width="53" height="23" xlink:href="img/4.jpg"/>
<image clip-path="url(#c0)" preserveAspectRatio="none" x="83" y="711" width="45" height="44" xlink:href="img/5.jpg"/>
<path d="M104.5,550.6V492.2" class="g6"/>
<path fill-rule="evenodd" d="M99.2,562.6c0,.7,.2,1.4,.5,2.1c.4,.6,.9,1.2,1.6,1.5c.6,.4,1.4,.6,2.2,.6c.7,0,1.4,-.2,2.1,-.6c.6,-.3,1.2,-.9,1.5,-1.5c.4,-.7,.6,-1.4,.6,-2.1c0,-.8,-.2,-1.5,-.6,-2.2c-.3,-.6,-.9,-1.2,-1.5,-1.5c-.7,-.4,-1.4,-.6,-2.1,-.6c-.8,0,-1.6,.2,-2.2,.6c-.7,.3,-1.2,.9,-1.6,1.5c-.3,.7,-.5,1.4,-.5,2.2Z" class="g4"/>
<path d="M99.2,562.6c0,.7,.2,1.4,.5,2.1c.4,.6,.9,1.2,1.6,1.5c.6,.4,1.4,.6,2.2,.6c.7,0,1.4,-.2,2.1,-.6c.6,-.3,1.2,-.9,1.5,-1.5c.4,-.7,.6,-1.4,.6,-2.1c0,-.8,-.2,-1.5,-.6,-2.2c-.3,-.6,-.9,-1.2,-1.5,-1.5c-.7,-.4,-1.4,-.6,-2.1,-.6c-.8,0,-1.6,.2,-2.2,.6c-.7,.3,-1.2,.9,-1.6,1.5c-.3,.7,-.5,1.4,-.5,2.2Z" class="g5"/>
<image clip-path="url(#c2)" preserveAspectRatio="none" x="81" y="262" width="54" height="23" xlink:href="img/6.jpg"/>
</svg>