<?xml version="1.0" encoding="UTF-8" standalone="no"?>
<!DOCTYPE svg PUBLIC "-//W3C//DTD SVG 1.1//EN"
"http://www.w3.org/Graphics/SVG/1.1/DTD/svg11.dtd">
<svg viewBox="0 0 825 1191" version="1.1" xmlns="http://www.w3.org/2000/svg" xmlns:xlink="http://www.w3.org/1999/xlink">
<defs>
<clipPath id="c0"><path d="M85.2,1162.3v-60.6H319.4v60.6Z"/></clipPath>
<clipPath id="c1"><path d="M93.3,423.9V386.8h35.6v37.1Z"/></clipPath>
<clipPath id="c2"><path d="M90.4,995.3V961.2h33.9v34.1Z"/></clipPath>
<clipPath id="c3"><path d="M91.7,593.6V557h36.8v36.6Z"/></clipPath>
<clipPath id="c4"><path d="M0,36.7V0H825V36.7Z"/></clipPath>
<clipPath id="c5"><path d="M89.7,290.6V264H145v26.6Z"/></clipPath>
<style type="text/css"><![CDATA[
.g0{
fill: #E7E6E6;
}
.g1{
fill: #FFFFFF;
}
.g2{
fill: none;
stroke: #D0CECE;
stroke-width: 0.381;
stroke-linecap: butt;
stroke-linejoin: miter;
stroke-miterlimit: 8;
}
.g3{
fill: none;
stroke: #D0CECE;
stroke-width: 0.763;
stroke-linecap: butt;
stroke-linejoin: miter;
stroke-miterlimit: 8;
}
]]></style>
</defs>
<path d="M0,1191.7H825V0H0V1191.7Z" class="g0"/>
<path fill-rule="evenodd" d="M65.2,82.4c0,-25,.4,-36.8,28.3,-36.8H732.8c27.9,0,26.6,8.3,26.6,33.3c0,60.4,1.4,151.7,-.5,210.4c0,25,-7.8,31.5,-35.7,31.5L97.5,317.4c-27.9,0,-32.3,2,-32.3,-23c-.3,-63.5,.3,-148.5,0,-212Z" class="g1"/>
<path d="M65.2,82.4c0,-25,.4,-36.8,28.3,-36.8H732.8c27.9,0,26.6,8.3,26.6,33.3c0,60.4,1.4,151.7,-.5,210.4c0,25,-7.8,31.5,-35.7,31.5L97.5,317.4c-27.9,0,-32.3,2,-32.3,-23c-.3,-63.5,.3,-148.5,0,-212Z" class="g2"/>
<path d="M80.5,187H723.1" class="g3"/>
<path fill-rule="evenodd" d="M65.4,1072.9c0,-11.8,.3,-17.3,28.2,-17.3H733.1c28,0,26.7,3.9,26.7,15.7c0,28.5,1.4,71.4,-.5,99.1c0,11.8,-7.8,14.9,-35.7,14.9L97.7,1183.6c-27.9,0,-32.3,1,-32.3,-10.8c-.4,-29.9,.3,-69.9,0,-99.9Z" class="g1"/>
<path d="M65.4,1072.9c0,-11.8,.3,-17.3,28.2,-17.3H733.1c28,0,26.7,3.9,26.7,15.7c0,28.5,1.4,71.4,-.5,99.1c0,11.8,-7.8,14.9,-35.7,14.9L97.7,1183.6c-27.9,0,-32.3,1,-32.3,-10.8c-.4,-29.9,.3,-69.9,0,-99.9Z" class="g2"/>
<image clip-path="url(#c0)" preserveAspectRatio="none" x="85" y="1102" width="234" height="60" xlink:href="img/1.jpg"/>
<path fill-rule="evenodd" d="M65.2,672.4c0,-14.8,.4,-21.8,28.3,-21.8H732.8c27.9,0,26.6,4.9,26.6,19.7c0,35.8,1.4,89.8,-.5,124.5c0,14.8,-7.8,18.6,-35.7,18.6l-625.7,-2c-27.9,0,-32.3,1.2,-32.3,-13.6c-.3,-37.6,.3,-87.8,0,-125.4Z" class="g1"/>
<path d="M65.2,672.4c0,-14.8,.4,-21.8,28.3,-21.8H732.8c27.9,0,26.6,4.9,26.6,19.7c0,35.8,1.4,89.8,-.5,124.5c0,14.8,-7.8,18.6,-35.7,18.6l-625.7,-2c-27.9,0,-32.3,1.2,-32.3,-13.6c-.3,-37.6,.3,-87.8,0,-125.4Z" class="g2"/>
<path fill-rule="evenodd" d="M66.1,346.2c0,-13,.4,-19.1,28.3,-19.1H733.9c27.9,0,26.6,4.3,26.6,17.3c0,31.4,1.4,78.9,-.5,109.4c0,13,-7.8,16.5,-35.7,16.5L98.5,468.5c-28,0,-32.4,1,-32.4,-12c-.3,-33.1,.3,-77.3,0,-110.3Z" class="g1"/>
<path d="M66.1,346.2c0,-13,.4,-19.1,28.3,-19.1H733.9c27.9,0,26.6,4.3,26.6,17.3c0,31.4,1.4,78.9,-.5,109.4c0,13,-7.8,16.5,-35.7,16.5L98.5,468.5c-28,0,-32.4,1,-32.4,-12c-.3,-33.1,.3,-77.3,0,-110.3Z" class="g2"/>
<image clip-path="url(#c1)" preserveAspectRatio="none" x="93" y="387" width="36" height="37" xlink:href="img/2.png"/>
<path fill-rule="evenodd" d="M66.1,500.6c0,-14.8,.4,-21.7,28.3,-21.7H733.9c27.9,0,26.6,4.9,26.6,19.7c0,35.7,1.4,89.7,-.5,124.4c0,14.8,-7.8,18.7,-35.7,18.7L98.5,639.6c-28,0,-32.4,1.2,-32.4,-13.6c-.3,-37.6,.3,-87.8,0,-125.4Z" class="g1"/>
<path d="M66.1,500.6c0,-14.8,.4,-21.7,28.3,-21.7H733.9c27.9,0,26.6,4.9,26.6,19.7c0,35.7,1.4,89.7,-.5,124.4c0,14.8,-7.8,18.7,-35.7,18.7L98.5,639.6c-28,0,-32.4,1.2,-32.4,-13.6c-.3,-37.6,.3,-87.8,0,-125.4Z" class="g2"/>
<path fill-rule="evenodd" d="M65.2,852.5c0,-20.4,.4,-29.9,28.3,-29.9H732.8c27.9,0,26.6,6.8,26.6,27.1c0,49.2,1.4,123.5,-.5,171.2c0,20.4,-7.8,25.7,-35.7,25.7L97.5,1043.9c-27.9,0,-32.3,1.6,-32.3,-18.8c-.3,-51.7,.3,-120.9,0,-172.6Z" class="g1"/>
<path d="M65.2,852.5c0,-20.4,.4,-29.9,28.3,-29.9H732.8c27.9,0,26.6,6.8,26.6,27.1c0,49.2,1.4,123.5,-.5,171.2c0,20.4,-7.8,25.7,-35.7,25.7L97.5,1043.9c-27.9,0,-32.3,1.6,-32.3,-18.8c-.3,-51.7,.3,-120.9,0,-172.6Z" class="g2"/>
<image preserveAspectRatio="none" x="93" y="878" width="34" height="34" xlink:href="img/3.jpg"/>
<image clip-path="url(#c2)" preserveAspectRatio="none" x="90" y="961" width="34" height="34" xlink:href="img/4.jpg"/>
<image clip-path="url(#c3)" preserveAspectRatio="none" x="92" y="557" width="37" height="37" xlink:href="img/5.jpg"/>
<image clip-path="url(#c4)" preserveAspectRatio="none" x="0" y="0" width="825" height="37" xlink:href="img/6.png"/>
<path fill-rule="evenodd" d="M664,18c0,-5.9,4.8,-10.7,10.6,-10.7c5.8,0,10.5,4.8,10.5,10.7c0,5.8,-4.7,10.6,-10.5,10.6C668.8,28.6,664,23.8,664,18Z" class="g1"/>
<image clip-path="url(#c5)" preserveAspectRatio="none" x="90" y="264" width="55" height="27" xlink:href="img/7.jpg"/>
</svg>