<?xml version="1.0" encoding="UTF-8" standalone="no"?>
<!DOCTYPE svg PUBLIC "-//W3C//DTD SVG 1.1//EN"
"http://www.w3.org/Graphics/SVG/1.1/DTD/svg11.dtd">
<svg viewBox="0 0 825 1191" version="1.1" xmlns="http://www.w3.org/2000/svg" xmlns:xlink="http://www.w3.org/1999/xlink">
<defs>
<clipPath id="c0_1"><path d="M64.9,244.1C65,190.9,65.2,134.7,65,88.6C65,60.7,65.4,47.7,93.3,47.7H732.8c27.9,0,26.6,9.2,26.6,37.1c0,44.8,.6,104.8,.5,159.3Z"/></clipPath>
<clipPath id="c1_1"><path d="M705.8,246.4V216.9H737v29.5Z"/></clipPath>
<clipPath id="c2_1"><path d="M445.7,282.1V262.2h48.4v19.9Z"/></clipPath>
<clipPath id="c3_1"><path d="M83.4,719.9v-210H394.3v210Z"/></clipPath>
<clipPath id="c4_1"><path d="M0,36.7V0H825V36.7Z"/></clipPath>
<style type="text/css"><![CDATA[
.g0_1{
fill: #F3F2EF;
}
.g1_1{
fill: #FFFFFF;
}
.g2_1{
fill: #FF0000;
}
.g3_1{
fill: none;
stroke: #FFFFFF;
stroke-width: 1.527;
stroke-linecap: butt;
stroke-linejoin: miter;
stroke-miterlimit: 8;
}
.g4_1{
fill: #4472C4;
}
.g5_1{
fill: none;
stroke: #0070C0;
stroke-width: 1.527;
stroke-linecap: butt;
stroke-linejoin: miter;
stroke-miterlimit: 8;
}
.g6_1{
fill: none;
stroke: #A6A6A6;
stroke-width: 1.527;
stroke-linecap: butt;
stroke-linejoin: miter;
stroke-miterlimit: 8;
}
.g7_1{
fill: none;
stroke: #D0CECE;
stroke-width: 0.381;
stroke-linecap: butt;
stroke-linejoin: miter;
stroke-miterlimit: 8;
}
.g8_1{
fill: #F1F1F1;
}
]]></style>
</defs>
<path d="M0,1191.7H825V0H0V1191.7Z" class="g0_1"/>
<image clip-path="url(#c0_1)" preserveAspectRatio="none" x="65" y="-7" width="695" height="251" xlink:href="img/1.jpg"/>
<path fill-rule="evenodd" d="M62.7,205.9H759.9V310.8h-.1l.1,9.2c.1,30.3,0,60.5,-1,84.1c0,20.2,-7.8,25.5,-35.8,25.5L95.3,426.8c-28,0,-32.5,1.6,-32.5,-18.5c-.2,-25.6,-.1,-55.5,0,-85.4V310.8h-.1Z" class="g1_1"/>
<image preserveAspectRatio="none" x="101" y="140" width="112" height="112" xlink:href="img/2.png"/>
<path fill-rule="evenodd" d="M189,243.3c0,-6.1,4.9,-11,11,-11c6.1,0,11,4.9,11,11c0,6.1,-4.9,11,-11,11c-6.1,0,-11,-4.9,-11,-11Z" class="g2_1"/>
<path d="M189,243.3c0,-6.1,4.9,-11,11,-11c6.1,0,11,4.9,11,11c0,6.1,-4.9,11,-11,11c-6.1,0,-11,-4.9,-11,-11Z" class="g3_1"/>
<image clip-path="url(#c1_1)" preserveAspectRatio="none" x="706" y="217" width="31" height="29" xlink:href="img/3.jpg"/>
<image clip-path="url(#c2_1)" preserveAspectRatio="none" x="446" y="262" width="48" height="20" xlink:href="img/4.png"/>
<path fill-rule="evenodd" d="M95,386.5h49.3c8.3,0,15,6.1,15,13.7c0,7.6,-6.7,13.8,-15,13.8H95c-8.3,0,-15.1,-6.2,-15.1,-13.8c0,-7.6,6.8,-13.7,15.1,-13.7Z" class="g4_1"/>
<path d="M95,386.5h49.3c8.3,0,15,6.1,15,13.7c0,7.6,-6.7,13.8,-15,13.8H95c-8.3,0,-15.1,-6.2,-15.1,-13.8c0,-7.6,6.8,-13.7,15.1,-13.7Z" class="g5_1"/>
<path fill-rule="evenodd" d="M181.3,387.2h49.3c8.3,0,15.1,6.2,15.1,13.8c0,7.5,-6.8,13.7,-15.1,13.7H181.3c-8.3,0,-15,-6.2,-15,-13.7c0,-7.6,6.7,-13.8,15,-13.8Z" class="g1_1"/>
<path d="M181.3,387.2h49.3c8.3,0,15.1,6.2,15.1,13.8c0,7.5,-6.8,13.7,-15.1,13.7H181.3c-8.3,0,-15,-6.2,-15,-13.7c0,-7.6,6.7,-13.8,15,-13.8Z" class="g6_1"/>
<path fill-rule="evenodd" d="M62.8,840.8c0,-35.6,.4,-52.3,28.3,-52.3H730.6c27.9,0,26.6,11.8,26.6,47.4c0,86.1,1.4,216,-.5,299.6c0,35.6,-7.8,45,-35.7,45L95.2,1175.6c-28,0,-32.4,2.9,-32.4,-32.8c-.3,-90.5,.3,-211.5,0,-302Z" class="g1_1"/>
<path d="M62.8,840.8c0,-35.6,.4,-52.3,28.3,-52.3H730.6c27.9,0,26.6,11.8,26.6,47.4c0,86.1,1.4,216,-.5,299.6c0,35.6,-7.8,45,-35.7,45L95.2,1175.6c-28,0,-32.4,2.9,-32.4,-32.8c-.3,-90.5,.3,-211.5,0,-302Z" class="g7_1"/>
<path fill-rule="evenodd" d="M59.9,479.9c0,-31.7,.3,-46.5,28.2,-46.5H727.5c27.9,0,26.6,10.5,26.6,42.2c0,76.4,1.4,192,-.5,266.3c0,31.7,-7.8,40,-35.7,40L92.2,777.6c-27.9,0,-32.3,2.5,-32.3,-29.2c-.4,-80.4,.3,-188,0,-268.5Z" class="g1_1"/>
<path d="M59.9,479.9c0,-31.7,.3,-46.5,28.2,-46.5H727.5c27.9,0,26.6,10.5,26.6,42.2c0,76.4,1.4,192,-.5,266.3c0,31.7,-7.8,40,-35.7,40L92.2,777.6c-27.9,0,-32.3,2.5,-32.3,-29.2c-.4,-80.4,.3,-188,0,-268.5Z" class="g7_1"/>
<path fill-rule="evenodd" d="M71.7,517.9C71.7,492,71.9,480,85.3,480H391.4c13.4,0,12.8,8.5,12.8,34.3c0,62.3,.7,156.5,-.2,217.1c0,25.8,-3.8,32.6,-17.1,32.6L87.2,760.4c-13.3,0,-15.5,2.1,-15.5,-23.7c-.1,-65.6,.2,-153.3,0,-218.8Z" class="g1_1"/>
<path d="M71.7,517.9C71.7,492,71.9,480,85.3,480H391.4c13.4,0,12.8,8.5,12.8,34.3c0,62.3,.7,156.5,-.2,217.1c0,25.8,-3.8,32.6,-17.1,32.6L87.2,760.4c-13.3,0,-15.5,2.1,-15.5,-23.7c-.1,-65.6,.2,-153.3,0,-218.8Z" class="g7_1"/>
<image clip-path="url(#c3_1)" preserveAspectRatio="none" x="83" y="510" width="311" height="210" xlink:href="img/5.jpg"/>
<path fill-rule="evenodd" d="M71.7,676.5H404.2v47.8c.1,12.7,0,25.3,-.4,35.2c0,8.5,-3.8,10.7,-17.1,10.7L87.2,769c-13.3,0,-15.5,.7,-15.5,-7.7c0,-10.7,0,-23.3,0,-35.8v-5.1Z" class="g8_1"/>
<image preserveAspectRatio="none" x="446" y="291" width="45" height="45" xlink:href="img/6.jpg"/>
<image clip-path="url(#c4_1)" preserveAspectRatio="none" x="0" y="0" width="825" height="37" xlink:href="img/7.png"/>
<path fill-rule="evenodd" d="M664,18c0,-5.9,4.8,-10.7,10.6,-10.7c5.8,0,10.5,4.8,10.5,10.7c0,5.8,-4.7,10.6,-10.5,10.6C668.8,28.6,664,23.8,664,18Z" class="g1_1"/>
</svg>