<?xml version="1.0" encoding="UTF-8" standalone="no"?>
<!DOCTYPE svg PUBLIC "-//W3C//DTD SVG 1.1//EN"
"http://www.w3.org/Graphics/SVG/1.1/DTD/svg11.dtd">
<svg viewBox="0 0 825 1191" version="1.1" xmlns="http://www.w3.org/2000/svg" xmlns:xlink="http://www.w3.org/1999/xlink">
<defs>
<clipPath id="c0_1"><path d="M0,1191.6V0H825V1191.6Z"/></clipPath>
<clipPath id="c1_1"><path d="M723.1,354.6L97.3,350.7c-3.9,0,-7.3,.1,-10.4,.1c-18.7,0,-22,-1.7,-22,-25.7c-.3,-70.8,.3,-165.6,0,-236.5c0,-27.9,.4,-40.9,28.3,-40.9H732.7c27.9,0,26.6,9.2,26.6,37.1c0,67.3,1.4,169.1,-.5,234.5c0,28,-7.8,35.3,-35.7,35.3Z"/></clipPath>
<clipPath id="c2_1"><path d="M705.8,246.4V216.8H737v29.6Z"/></clipPath>
<style type="text/css"><![CDATA[
.g0_1{
fill: #FFFFFF;
}
.g1_1{
fill: #F3F2EF;
}
.g2_1{
fill: #FF0000;
}
.g3_1{
fill: none;
stroke: #FFFFFF;
stroke-width: 1.515;
stroke-linecap: butt;
stroke-linejoin: miter;
stroke-miterlimit: 3;
}
.g4_1{
fill: #4472C4;
}
.g5_1{
fill: none;
stroke: #0070C0;
stroke-width: 1.515;
stroke-linecap: butt;
stroke-linejoin: miter;
stroke-miterlimit: 3;
}
.g6_1{
fill: none;
stroke: #A6A6A6;
stroke-width: 1.515;
stroke-linecap: butt;
stroke-linejoin: miter;
stroke-miterlimit: 3;
}
.g7_1{
fill: none;
stroke: #D0CECE;
stroke-width: 0.389;
stroke-linecap: butt;
stroke-linejoin: miter;
stroke-miterlimit: 3;
}
.g8_1{
fill: #F2F2F2;
}
]]></style>
</defs>
<g clip-path="url(#c0_1)">
<path fill-rule="evenodd" d="M0,0H825V1191.6H0V0Z" class="g0_1"/>
<path fill-rule="evenodd" d="M0,0H825V1191.7H0V0Z" class="g1_1"/>
</g>
<image clip-path="url(#c1_1)" preserveAspectRatio="none" x="65" y="48" width="695" height="307" xlink:href="img/1.jpg"/>
<path fill-rule="evenodd" d="M62.7,205.8H759.8V310.7h-.1l.1,9.2c.1,30.3,0,60.5,-1,84.1c0,20.2,-7.8,25.5,-35.8,25.5L95.2,426.7c-27.9,0,-32.4,1.6,-32.4,-18.5c-.1,-25.6,-.1,-55.5,0,-85.4V310.7h-.1V205.8Z" class="g0_1"/>
<image clip-path="url(#c0_1)" preserveAspectRatio="none" x="101" y="140" width="112" height="112" xlink:href="img/2.png"/>
<path fill-rule="evenodd" d="M188.9,243.2c0,-2,.6,-3.8,1.5,-5.5c1,-1.7,2.4,-3.1,4,-4.1c1.7,-.9,3.6,-1.4,5.5,-1.4c2,0,3.9,.5,5.5,1.4c1.7,1,3.1,2.4,4.1,4.1c.9,1.7,1.4,3.5,1.4,5.5c0,1.9,-.5,3.8,-1.4,5.5c-1,1.7,-2.4,3,-4.1,4c-1.6,.9,-3.5,1.5,-5.5,1.5c-1.9,0,-3.8,-.6,-5.5,-1.5c-1.6,-1,-3,-2.3,-4,-4c-.9,-1.7,-1.5,-3.6,-1.5,-5.5Z" class="g2_1"/>
<path d="M188.9,243.2c0,-2,.6,-3.8,1.5,-5.5c1,-1.7,2.4,-3.1,4,-4.1c1.7,-.9,3.6,-1.4,5.5,-1.4c2,0,3.9,.5,5.5,1.4c1.7,1,3.1,2.4,4.1,4.1c.9,1.7,1.4,3.5,1.4,5.5c0,1.9,-.5,3.8,-1.4,5.5c-1,1.7,-2.4,3,-4.1,4c-1.6,.9,-3.5,1.5,-5.5,1.5c-1.9,0,-3.8,-.6,-5.5,-1.5c-1.6,-1,-3,-2.3,-4,-4c-.9,-1.7,-1.5,-3.6,-1.5,-5.5Z" class="g3_1"/>
<image clip-path="url(#c2_1)" preserveAspectRatio="none" x="664" y="206" width="81" height="50" xlink:href="img/3.jpg"/>
<image clip-path="url(#c0_1)" preserveAspectRatio="none" x="446" y="262" width="48" height="20" xlink:href="img/4.png"/>
<path fill-rule="evenodd" d="M94.9,386.4h49.3c8.3,0,15.1,6.2,15.1,13.8c0,7.5,-6.8,13.7,-15.1,13.7H94.9c-8.3,0,-15,-6.2,-15,-13.7c0,-7.6,6.7,-13.8,15,-13.8Z" class="g4_1"/>
<path d="M94.9,386.4h49.3c8.3,0,15.1,6.2,15.1,13.8c0,7.5,-6.8,13.7,-15.1,13.7H94.9c-8.3,0,-15,-6.2,-15,-13.7c0,-7.6,6.7,-13.8,15,-13.8Z" class="g5_1"/>
<path fill-rule="evenodd" d="M181.2,387.3h49.4c8.3,0,15,6.1,15,13.7c0,7.6,-6.7,13.8,-15,13.8H181.2c-8.3,0,-15,-6.2,-15,-13.8c0,-7.6,6.7,-13.7,15,-13.7Z" class="g0_1"/>
<path d="M181.2,387.3h49.4c8.3,0,15,6.1,15,13.7c0,7.6,-6.7,13.8,-15,13.8H181.2c-8.3,0,-15,-6.2,-15,-13.8c0,-7.6,6.7,-13.7,15,-13.7Z" class="g6_1"/>
<path fill-rule="evenodd" d="M62.8,840.9c0,-35.7,.3,-52.3,28.2,-52.3H730.5c27.9,0,26.6,11.8,26.6,47.4c0,86,1.5,215.9,-.4,299.5c0,35.6,-7.9,45,-35.8,45L95.1,1175.6c-27.9,0,-32.3,2.8,-32.3,-32.8c-.4,-90.5,.3,-211.5,0,-301.9Z" class="g0_1"/>
<path d="M62.8,840.9c0,-35.7,.3,-52.3,28.2,-52.3H730.5c27.9,0,26.6,11.8,26.6,47.4c0,86,1.5,215.9,-.4,299.5c0,35.6,-7.9,45,-35.8,45L95.1,1175.6c-27.9,0,-32.3,2.8,-32.3,-32.8c-.4,-90.5,.3,-211.5,0,-301.9Z" class="g7_1"/>
<path fill-rule="evenodd" d="M59.7,479.8c0,-31.7,.4,-46.5,28.3,-46.5H727.5c27.9,0,26.6,10.5,26.6,42.1c0,76.6,1.4,192.1,-.5,266.5c0,31.7,-7.8,40,-35.7,40L92.1,777.5c-28,0,-32.4,2.6,-32.4,-29.1c-.3,-80.5,.3,-188.1,0,-268.6Z" class="g0_1"/>
<path d="M59.7,479.8c0,-31.7,.4,-46.5,28.3,-46.5H727.5c27.9,0,26.6,10.5,26.6,42.1c0,76.6,1.4,192.1,-.5,266.5c0,31.7,-7.8,40,-35.7,40L92.1,777.5c-28,0,-32.4,2.6,-32.4,-29.1c-.3,-80.5,.3,-188.1,0,-268.6Z" class="g7_1"/>
<path fill-rule="evenodd" d="M71.7,517.8c0,-25.8,.2,-37.9,13.5,-37.9H391.4c13.3,0,12.7,8.6,12.7,34.4c0,62.2,.7,156.4,-.2,216.9c0,25.9,-3.7,32.7,-17.1,32.7L87.2,760.3c-13.4,0,-15.5,2.1,-15.5,-23.7c-.1,-65.6,.1,-153.3,0,-218.8Z" class="g0_1"/>
<path d="M71.7,517.8c0,-25.8,.2,-37.9,13.5,-37.9H391.4c13.3,0,12.7,8.6,12.7,34.4c0,62.2,.7,156.4,-.2,216.9c0,25.9,-3.7,32.7,-17.1,32.7L87.2,760.3c-13.4,0,-15.5,2.1,-15.5,-23.7c-.1,-65.6,.1,-153.3,0,-218.8Z" class="g7_1"/>
<image clip-path="url(#c0_1)" preserveAspectRatio="none" x="83" y="510" width="311" height="210" xlink:href="img/5.jpg"/>
<path fill-rule="evenodd" d="M71.6,676.5H404.3v47.7c0,12.7,0,25.4,-.5,35.2c0,8.4,-3.7,10.7,-17.1,10.7L87.1,768.9c-13.3,0,-15.5,.7,-15.5,-7.7c0,-10.7,0,-23.2,0,-35.7v-49Z" class="g8_1"/>
<g clip-path="url(#c0_1)">
<image preserveAspectRatio="none" x="446" y="291" width="45" height="45" xlink:href="img/6.jpg"/>
<image preserveAspectRatio="none" x="0" y="0" width="825" height="37" xlink:href="img/7.png"/>
</g>
<path fill-rule="evenodd" d="M664,17.9c0,-1.8,.5,-3.7,1.5,-5.3c.9,-1.6,2.2,-2.9,3.8,-3.9c1.6,-.9,3.5,-1.3,5.3,-1.3c1.9,0,3.7,.4,5.3,1.3c1.6,1,3,2.3,3.9,3.9c.9,1.6,1.4,3.5,1.4,5.3c0,1.9,-.5,3.7,-1.4,5.3c-.9,1.6,-2.3,3,-3.9,3.9c-1.6,.9,-3.4,1.4,-5.3,1.4c-1.8,0,-3.7,-.5,-5.3,-1.4c-1.6,-.9,-2.9,-2.3,-3.8,-3.9c-1,-1.6,-1.5,-3.4,-1.5,-5.3Z" class="g0_1"/>
</svg>