<?xml version="1.0" encoding="UTF-8" standalone="no"?>
<!DOCTYPE svg PUBLIC "-//W3C//DTD SVG 1.1//EN"
"http://www.w3.org/Graphics/SVG/1.1/DTD/svg11.dtd">
<svg viewBox="0 0 825 1191" version="1.1" xmlns="http://www.w3.org/2000/svg" xmlns:xlink="http://www.w3.org/1999/xlink">
<defs>
<clipPath id="c0"><path d="M93.1,204.6V178h55.4v26.6Z"/></clipPath>
<clipPath id="c1"><path d="M0,36.7V0H825V36.7Z"/></clipPath>
<clipPath id="c2"><path d="M82.9,1146v-60.7H317V1146Z"/></clipPath>
<clipPath id="c3"><path d="M90,324.1v-37h35.6v37Z"/></clipPath>
<style type="text/css"><![CDATA[
.g0{
fill: #E7E6E6;
}
.g1{
fill: #FFFFFF;
}
.g2{
fill: none;
stroke: #D0CECE;
stroke-width: 0.381;
stroke-linecap: butt;
stroke-linejoin: miter;
stroke-miterlimit: 8;
}
]]></style>
</defs>
<path d="M0,1191.7H825V0H0V1191.7Z" class="g0"/>
<path fill-rule="evenodd" d="M67.4,75.1c0,-14.6,.4,-21.4,28.3,-21.4H735.2c27.9,0,26.6,4.8,26.6,19.4c0,35.3,1.4,88.5,-.5,122.8c0,14.6,-7.8,18.4,-35.7,18.4l-625.9,-2c-27.9,0,-32.3,1.2,-32.3,-13.4c-.3,-37.1,.3,-86.7,0,-123.8Z" class="g1"/>
<path d="M67.4,75.1c0,-14.6,.4,-21.4,28.3,-21.4H735.2c27.9,0,26.6,4.8,26.6,19.4c0,35.3,1.4,88.5,-.5,122.8c0,14.6,-7.8,18.4,-35.7,18.4l-625.9,-2c-27.9,0,-32.3,1.2,-32.3,-13.4c-.3,-37.1,.3,-86.7,0,-123.8Z" class="g2"/>
<image clip-path="url(#c0)" preserveAspectRatio="none" x="93" y="178" width="55" height="27" xlink:href="img/1.jpg"/>
<image clip-path="url(#c1)" preserveAspectRatio="none" x="0" y="0" width="825" height="37" xlink:href="img/2.png"/>
<path fill-rule="evenodd" d="M664,18c0,-5.9,4.8,-10.7,10.6,-10.7c5.8,0,10.5,4.8,10.5,10.7c0,5.8,-4.7,10.6,-10.5,10.6C668.8,28.6,664,23.8,664,18Z" class="g1"/>
<path fill-rule="evenodd" d="M63.2,1056.6c0,-11.8,.3,-17.3,28.2,-17.3H730.9c28,0,26.7,3.9,26.7,15.7c0,28.4,1.4,71.4,-.5,99.1c0,11.7,-7.8,14.8,-35.7,14.8L95.5,1167.3c-27.9,0,-32.3,1,-32.3,-10.8c-.4,-29.9,.3,-70,0,-99.9Z" class="g1"/>
<path d="M63.2,1056.6c0,-11.8,.3,-17.3,28.2,-17.3H730.9c28,0,26.7,3.9,26.7,15.7c0,28.4,1.4,71.4,-.5,99.1c0,11.7,-7.8,14.8,-35.7,14.8L95.5,1167.3c-27.9,0,-32.3,1,-32.3,-10.8c-.4,-29.9,.3,-70,0,-99.9Z" class="g2"/>
<image clip-path="url(#c2)" preserveAspectRatio="none" x="83" y="1085" width="234" height="61" xlink:href="img/3.jpg"/>
<path fill-rule="evenodd" d="M62.8,585.9c0,-21.7,.4,-31.9,28.3,-31.9H730.6c27.9,0,26.6,7.2,26.6,28.9c0,52.5,1.4,131.7,-.5,182.6c0,21.7,-7.8,27.4,-35.7,27.4l-625.8,-3c-28,0,-32.4,1.8,-32.4,-19.9c-.3,-55.2,.3,-128.9,0,-184.1Z" class="g1"/>
<path d="M62.8,585.9c0,-21.7,.4,-31.9,28.3,-31.9H730.6c27.9,0,26.6,7.2,26.6,28.9c0,52.5,1.4,131.7,-.5,182.6c0,21.7,-7.8,27.4,-35.7,27.4l-625.8,-3c-28,0,-32.4,1.8,-32.4,-19.9c-.3,-55.2,.3,-128.9,0,-184.1Z" class="g2"/>
<path fill-rule="evenodd" d="M62.8,246.4c0,-13,.4,-19.1,28.3,-19.1H730.6c27.9,0,26.6,4.3,26.6,17.4c0,31.4,1.4,78.9,-.5,109.4c0,13,-7.8,16.4,-35.7,16.4L95.2,368.7c-28,0,-32.4,1.1,-32.4,-11.9c-.3,-33.1,.3,-77.3,0,-110.4Z" class="g1"/>
<path d="M62.8,246.4c0,-13,.4,-19.1,28.3,-19.1H730.6c27.9,0,26.6,4.3,26.6,17.4c0,31.4,1.4,78.9,-.5,109.4c0,13,-7.8,16.4,-35.7,16.4L95.2,368.7c-28,0,-32.4,1.1,-32.4,-11.9c-.3,-33.1,.3,-77.3,0,-110.4Z" class="g2"/>
<image clip-path="url(#c3)" preserveAspectRatio="none" x="90" y="287" width="36" height="37" xlink:href="img/4.png"/>
<path fill-rule="evenodd" d="M64.8,399.6c0,-14.8,.4,-21.8,28.3,-21.8H732.6c27.9,0,26.6,4.9,26.6,19.7c0,35.8,1.5,89.8,-.5,124.5c0,14.8,-7.8,18.6,-35.7,18.6l-625.8,-2c-27.9,0,-32.4,1.2,-32.4,-13.6c-.3,-37.6,.3,-87.8,0,-125.4Z" class="g1"/>
<path d="M64.8,399.6c0,-14.8,.4,-21.8,28.3,-21.8H732.6c27.9,0,26.6,4.9,26.6,19.7c0,35.8,1.5,89.8,-.5,124.5c0,14.8,-7.8,18.6,-35.7,18.6l-625.8,-2c-27.9,0,-32.4,1.2,-32.4,-13.6c-.3,-37.6,.3,-87.8,0,-125.4Z" class="g2"/>
<image preserveAspectRatio="none" x="84" y="452" width="43" height="43" xlink:href="img/5.jpg"/>
<path fill-rule="evenodd" d="M62.8,836.2c0,-20.4,.4,-29.9,28.3,-29.9H730.6c27.9,0,26.6,6.7,26.6,27.1c0,49.2,1.4,123.5,-.5,171.2c0,20.4,-7.8,25.7,-35.7,25.7L95.2,1027.5c-28,0,-32.4,1.7,-32.4,-18.7c-.3,-51.7,.3,-120.9,0,-172.6Z" class="g1"/>
<path d="M62.8,836.2c0,-20.4,.4,-29.9,28.3,-29.9H730.6c27.9,0,26.6,6.7,26.6,27.1c0,49.2,1.4,123.5,-.5,171.2c0,20.4,-7.8,25.7,-35.7,25.7L95.2,1027.5c-28,0,-32.4,1.7,-32.4,-18.7c-.3,-51.7,.3,-120.9,0,-172.6Z" class="g2"/>
<image preserveAspectRatio="none" x="91" y="862" width="34" height="34" xlink:href="img/6.jpg"/>
<image preserveAspectRatio="none" x="88" y="945" width="34" height="34" xlink:href="img/7.jpg"/>
</svg>