<?xml version="1.0" encoding="UTF-8" standalone="no"?>
<!DOCTYPE svg PUBLIC "-//W3C//DTD SVG 1.1//EN"
"http://www.w3.org/Graphics/SVG/1.1/DTD/svg11.dtd">
<svg viewBox="0 0 825 1191" version="1.1" xmlns="http://www.w3.org/2000/svg" xmlns:xlink="http://www.w3.org/1999/xlink">
<defs>
<clipPath id="c0"><path d="M80.5,197.5V170.9h55.3v26.6Z"/></clipPath>
<clipPath id="c1"><path d="M0,36.7V0H825V36.7Z"/></clipPath>
<clipPath id="c2"><path d="M86.2,1125.9v-60.7H320.3v60.7Z"/></clipPath>
<clipPath id="c3"><path d="M103.9,313.7c-4.4,0,-8,-3.6,-8,-8V273.8c0,-4.4,3.6,-8,8,-8h35.5c4.4,0,8,3.6,8,8v31.9c0,4.4,-3.6,8,-8,8Z"/></clipPath>
<clipPath id="c4"><path d="M93.5,447.7v-37h35.6v37Z"/></clipPath>
<style type="text/css"><![CDATA[
.g0{
fill: #E7E6E6;
}
.g1{
fill: #FFFFFF;
}
.g2{
fill: none;
stroke: #D0CECE;
stroke-width: 0.381;
stroke-linecap: butt;
stroke-linejoin: miter;
stroke-miterlimit: 8;
}
.g3{
fill: none;
stroke: #D0CECE;
stroke-width: 0.763;
stroke-linecap: butt;
stroke-linejoin: miter;
stroke-miterlimit: 8;
}
.g4{
fill: #AFABAB;
}
.g5{
fill: none;
stroke: #AFABAB;
stroke-width: 1.527;
stroke-linecap: butt;
stroke-linejoin: miter;
stroke-miterlimit: 8;
}
]]></style>
</defs>
<path d="M0,1191.7H825V0H0V1191.7Z" class="g0"/>
<path fill-rule="evenodd" d="M65.2,93.2c0,-25,.4,-36.7,28.3,-36.7H732.8c27.9,0,26.6,8.2,26.6,33.3c0,60.3,1.4,151.6,-.5,210.3c0,25,-7.8,31.5,-35.7,31.5L97.5,328.2c-27.9,0,-32.3,2,-32.3,-23c-.3,-63.5,.3,-148.5,0,-212Z" class="g1"/>
<path d="M65.2,93.2c0,-25,.4,-36.7,28.3,-36.7H732.8c27.9,0,26.6,8.2,26.6,33.3c0,60.3,1.4,151.6,-.5,210.3c0,25,-7.8,31.6,-35.7,31.6L97.5,328.2c-27.9,0,-32.3,2,-32.3,-23c-.3,-63.5,.3,-148.5,0,-212Z" class="g2"/>
<path d="M80.5,197.8H723.1" class="g3"/>
<image clip-path="url(#c0)" preserveAspectRatio="none" x="80" y="171" width="56" height="26" xlink:href="img/1.jpg"/>
<image clip-path="url(#c1)" preserveAspectRatio="none" x="0" y="0" width="825" height="37" xlink:href="img/2.png"/>
<path fill-rule="evenodd" d="M664,18c0,-5.9,4.8,-10.7,10.6,-10.7c5.8,0,10.5,4.8,10.5,10.7c0,5.8,-4.7,10.6,-10.5,10.6C668.8,28.6,664,23.8,664,18Z" class="g1"/>
<path fill-rule="evenodd" d="M66.3,1036.5c0,-11.8,.4,-17.3,28.3,-17.3H734.1c27.9,0,26.6,3.9,26.6,15.7c0,28.4,1.4,71.5,-.5,99.2c0,11.8,-7.8,14.9,-35.7,14.9L98.6,1147.3c-27.9,0,-32.3,1,-32.3,-10.8c-.3,-30,.3,-70.1,0,-100Z" class="g1"/>
<path d="M66.3,1036.5c0,-11.8,.4,-17.3,28.3,-17.3H734.1c27.9,0,26.6,3.9,26.6,15.7c0,28.4,1.4,71.5,-.5,99.2c0,11.8,-7.8,14.9,-35.7,14.9L98.6,1147.3c-27.9,0,-32.3,1,-32.3,-10.8c-.3,-30,.3,-70.1,0,-100Z" class="g2"/>
<image clip-path="url(#c2)" preserveAspectRatio="none" x="86" y="1065" width="234" height="61" xlink:href="img/3.jpg"/>
<path fill-rule="evenodd" d="M65.2,803.2c0,-20.4,.4,-29.9,28.3,-29.9H732.8c27.9,0,26.6,6.7,26.6,27.1c0,49.2,1.4,123.5,-.5,171.2c0,20.4,-7.8,25.7,-35.7,25.7L97.5,994.5c-27.9,0,-32.3,1.7,-32.3,-18.7c-.3,-51.7,.3,-120.9,0,-172.6Z" class="g1"/>
<path d="M65.2,803.2c0,-20.4,.4,-29.9,28.3,-29.9H732.8c27.9,0,26.6,6.7,26.6,27.1c0,49.2,1.4,123.5,-.5,171.2c0,20.4,-7.8,25.7,-35.7,25.7L97.5,994.5c-27.9,0,-32.3,1.7,-32.3,-18.7c-.3,-51.7,.3,-120.9,0,-172.6Z" class="g2"/>
<image clip-path="url(#c3)" preserveAspectRatio="none" x="96" y="266" width="51" height="48" xlink:href="img/4.jpg"/>
<path fill-rule="evenodd" d="M66.3,380.2c0,-20,.4,-29.3,28.3,-29.3H734.1c27.9,0,26.6,6.6,26.6,26.5c0,48.1,1.4,120.9,-.5,167.6c0,19.9,-7.8,25.2,-35.7,25.2L98.6,567.4c-27.9,0,-32.3,1.6,-32.3,-18.3c-.3,-50.6,.3,-118.3,0,-168.9Z" class="g1"/>
<path d="M66.3,380.2c0,-20,.4,-29.3,28.3,-29.3H734.1c27.9,0,26.6,6.6,26.6,26.5c0,48.1,1.4,120.9,-.5,167.6c0,19.9,-7.8,25.2,-35.7,25.2L98.6,567.4c-27.9,0,-32.3,1.6,-32.3,-18.3c-.3,-50.6,.3,-118.3,0,-168.9Z" class="g2"/>
<image clip-path="url(#c4)" preserveAspectRatio="none" x="94" y="411" width="35" height="37" xlink:href="img/5.png"/>
<path fill-rule="evenodd" d="M100.3,480.6c0,2.4,1.9,4.3,4.3,4.3c2.4,0,4.3,-1.9,4.3,-4.3c0,-2.4,-1.9,-4.3,-4.3,-4.3c-2.4,0,-4.3,1.9,-4.3,4.3Z" class="g4"/>
<path d="M100.3,480.6c0,2.4,1.9,4.3,4.3,4.3c2.4,0,4.3,-1.9,4.3,-4.3c0,-2.4,-1.9,-4.3,-4.3,-4.3c-2.4,0,-4.3,1.9,-4.3,4.3Z" class="g5"/>
<path fill-rule="evenodd" d="M66.3,611.3c0,-14.8,.4,-21.7,28.3,-21.7H734.1c27.9,0,26.6,4.9,26.6,19.7c0,35.8,1.4,89.8,-.5,124.6c0,14.8,-7.8,18.7,-35.7,18.7l-625.9,-2c-27.9,0,-32.3,1.1,-32.3,-13.7c-.3,-37.6,.3,-87.9,0,-125.6Z" class="g1"/>
<path d="M66.3,611.3c0,-14.8,.4,-21.7,28.3,-21.7H734.1c27.9,0,26.6,4.9,26.6,19.7c0,35.8,1.4,89.8,-.5,124.6c0,14.8,-7.8,18.7,-35.7,18.7l-625.9,-2c-27.9,0,-32.3,1.1,-32.3,-13.7c-.3,-37.6,.3,-87.9,0,-125.6Z" class="g2"/>
<image preserveAspectRatio="none" x="84" y="661" width="50" height="51" xlink:href="img/6.jpg"/>
</svg>