<?xml version="1.0" encoding="UTF-8" standalone="no"?>
<!DOCTYPE svg PUBLIC "-//W3C//DTD SVG 1.1//EN"
"http://www.w3.org/Graphics/SVG/1.1/DTD/svg11.dtd">
<svg viewBox="0 0 825 1191" version="1.1" xmlns="http://www.w3.org/2000/svg" xmlns:xlink="http://www.w3.org/1999/xlink">
<defs>
<clipPath id="c0"><path d="M0,36.7V0H825V36.7Z"/></clipPath>
<clipPath id="c1"><path d="M50.6,1145V813.3h711V1145Z"/></clipPath>
<clipPath id="c2"><path d="M51.5,1182.7v-37.4h711v37.4Z"/></clipPath>
<clipPath id="c3"><path d="M78.6,410.7V356h43.3v54.7Z"/></clipPath>
<clipPath id="c4"><path d="M73.9,609.8V564.9h45.5v44.9Z"/></clipPath>
<clipPath id="c5"><path d="M73.9,547.1V504h43.3v43.1Z"/></clipPath>
<clipPath id="c6"><path d="M76.5,202.2V175.6h55.3v26.6Z"/></clipPath>
<clipPath id="c7"><path d="M80.7,289.7V269.1h68.5v20.6Z"/></clipPath>
<style type="text/css"><![CDATA[
.g0{
fill: #F3F2EF;
}
.g1{
fill: #FFFFFF;
}
.g2{
fill: none;
stroke: #D0CECE;
stroke-width: 0.381;
stroke-linecap: butt;
stroke-linejoin: miter;
stroke-miterlimit: 8;
}
.g3{
fill: none;
stroke: #D0CECE;
stroke-width: 0.763;
stroke-linecap: butt;
stroke-linejoin: miter;
stroke-miterlimit: 8;
}
]]></style>
</defs>
<path d="M0,1191.7H825V0H0V1191.7Z" class="g0"/>
<image clip-path="url(#c0)" preserveAspectRatio="none" x="0" y="0" width="825" height="37" xlink:href="img/1.png"/>
<path fill-rule="evenodd" d="M664,18c0,-5.9,4.8,-10.7,10.6,-10.7c5.8,0,10.5,4.8,10.5,10.7c0,5.8,-4.7,10.6,-10.5,10.6C668.8,28.6,664,23.8,664,18Z" class="g1"/>
<path fill-rule="evenodd" d="M57.8,670.5c0,-14.8,.4,-21.7,28.3,-21.7H725.6c27.9,0,26.7,4.9,26.7,19.7c0,35.7,1.4,89.7,-.5,124.4c0,14.8,-7.8,18.7,-35.7,18.7l-625.9,-2c-27.9,0,-32.4,1.2,-32.4,-13.6c-.3,-37.6,.4,-87.9,0,-125.5Z" class="g1"/>
<path d="M57.8,670.5c0,-14.8,.4,-21.7,28.3,-21.7H725.6c27.9,0,26.7,4.9,26.7,19.7c0,35.7,1.4,89.7,-.5,124.4c0,14.8,-7.8,18.7,-35.7,18.7l-625.9,-2c-27.9,0,-32.4,1.2,-32.4,-13.6c-.3,-37.6,.4,-87.9,0,-125.5Z" class="g2"/>
<image preserveAspectRatio="none" x="72" y="728" width="46" height="45" xlink:href="img/2.jpg"/>
<image clip-path="url(#c1)" preserveAspectRatio="none" x="51" y="813" width="711" height="332" xlink:href="img/3.jpg"/>
<image clip-path="url(#c2)" preserveAspectRatio="none" x="52" y="1145" width="710" height="38" xlink:href="img/4.jpg"/>
<path fill-rule="evenodd" d="M59.1,350.4c0,-30.6,.4,-45,28.3,-45H726.9c27.9,0,26.6,10.2,26.6,40.8c0,73.9,1.5,185.6,-.4,257.4c0,30.6,-7.8,38.6,-35.7,38.6L91.5,638c-27.9,0,-32.4,2.5,-32.4,-28.1c-.3,-77.8,.3,-181.8,0,-259.5Z" class="g1"/>
<path d="M59.1,350.4c0,-30.6,.4,-45,28.3,-45H726.9c27.9,0,26.6,10.2,26.6,40.8c0,73.9,1.5,185.6,-.4,257.4c0,30.6,-7.8,38.6,-35.7,38.6L91.5,638c-27.9,0,-32.4,2.5,-32.4,-28.1c-.3,-77.8,.3,-181.8,0,-259.5Z" class="g2"/>
<image clip-path="url(#c3)" preserveAspectRatio="none" x="79" y="356" width="43" height="55" xlink:href="img/5.png"/>
<image clip-path="url(#c4)" preserveAspectRatio="none" x="74" y="565" width="45" height="45" xlink:href="img/6.png"/>
<image preserveAspectRatio="none" x="76" y="438" width="44" height="44" xlink:href="img/7.jpg"/>
<image clip-path="url(#c5)" preserveAspectRatio="none" x="74" y="504" width="43" height="43" xlink:href="img/8.jpg"/>
<path fill-rule="evenodd" d="M61.1,76.9c0,-23.4,.4,-34.4,28.3,-34.4H728.9c27.9,0,26.7,7.8,26.7,31.2c0,56.6,1.4,142.1,-.5,197c0,23.5,-7.8,29.6,-35.7,29.6L93.5,297.1c-27.9,0,-32.4,1.9,-32.4,-21.6c-.3,-59.5,.4,-139.1,0,-198.6Z" class="g1"/>
<path d="M61.1,76.9c0,-23.4,.4,-34.4,28.3,-34.4H728.9c27.9,0,26.7,7.8,26.7,31.2c0,56.6,1.4,142.1,-.5,197c0,23.5,-7.8,29.6,-35.7,29.6L93.5,297.1c-27.9,0,-32.4,1.9,-32.4,-21.6c-.3,-59.5,.4,-139.1,0,-198.6Z" class="g2"/>
<path d="M76.5,202.6H719" class="g3"/>
<image clip-path="url(#c6)" preserveAspectRatio="none" x="76" y="176" width="56" height="26" xlink:href="img/9.jpg"/>
<image clip-path="url(#c7)" preserveAspectRatio="none" x="81" y="269" width="68" height="21" xlink:href="img/10.png"/>
</svg>