<?xml version="1.0" encoding="UTF-8" standalone="no"?>
<!DOCTYPE svg PUBLIC "-//W3C//DTD SVG 1.1//EN"
"http://www.w3.org/Graphics/SVG/1.1/DTD/svg11.dtd">
<svg viewBox="0 0 825 1191" version="1.1" xmlns="http://www.w3.org/2000/svg" xmlns:xlink="http://www.w3.org/1999/xlink">
<defs>
<clipPath id="c0"><path d="M0,1191.6V0H825V1191.6Z"/></clipPath>
<clipPath id="c1"><path d="M50.6,1145.3v-332h711v332Z"/></clipPath>
<clipPath id="c2"><path d="M51.5,1182.8v-37.5h711v37.5Z"/></clipPath>
<style type="text/css"><![CDATA[
.g0{
fill: #FFFFFF;
}
.g1{
fill: #F3F2EF;
}
.g2{
fill: none;
stroke: #D0CECE;
stroke-width: 0.389;
stroke-linecap: butt;
stroke-linejoin: miter;
stroke-miterlimit: 3;
}
.g3{
fill: none;
stroke: #D0CECE;
stroke-width: 0.779;
stroke-linecap: butt;
stroke-linejoin: miter;
stroke-miterlimit: 3;
}
]]></style>
</defs>
<g clip-path="url(#c0)">
<path fill-rule="evenodd" d="M0,0H825V1191.6H0V0Z" class="g0"/>
<path fill-rule="evenodd" d="M0,0H825V1191.7H0V0Z" class="g1"/>
<image preserveAspectRatio="none" x="0" y="0" width="825" height="37" xlink:href="img/1.png"/>
</g>
<path fill-rule="evenodd" d="M664,17.9c0,-1.8,.5,-3.7,1.5,-5.3c.9,-1.6,2.2,-2.9,3.8,-3.9c1.6,-.9,3.5,-1.3,5.3,-1.3c1.9,0,3.7,.4,5.3,1.3c1.6,1,3,2.3,3.9,3.9c.9,1.6,1.4,3.5,1.4,5.3c0,1.9,-.5,3.7,-1.4,5.3c-.9,1.6,-2.3,3,-3.9,3.9c-1.6,.9,-3.4,1.4,-5.3,1.4c-1.8,0,-3.7,-.5,-5.3,-1.4c-1.6,-.9,-2.9,-2.3,-3.8,-3.9c-1,-1.6,-1.5,-3.4,-1.5,-5.3Z" class="g0"/>
<path fill-rule="evenodd" d="M57.8,670.5c0,-14.8,.3,-21.7,28.3,-21.7H725.5c27.9,0,26.7,4.9,26.7,19.6c0,35.8,1.4,89.8,-.5,124.6c0,14.8,-7.9,18.7,-35.7,18.7L90.1,809.6c-27.9,0,-32.3,1.2,-32.3,-13.6c-.3,-37.6,.3,-87.9,0,-125.5Z" class="g0"/>
<path d="M57.8,670.5c0,-14.8,.3,-21.7,28.3,-21.7H725.5c27.9,0,26.7,4.9,26.7,19.6c0,35.8,1.4,89.8,-.5,124.6c0,14.8,-7.9,18.7,-35.7,18.7L90.1,809.6c-27.9,0,-32.3,1.2,-32.3,-13.6c-.3,-37.6,.3,-87.9,0,-125.5Z" class="g2"/>
<image clip-path="url(#c0)" preserveAspectRatio="none" x="72" y="728" width="46" height="45" xlink:href="img/2.jpg"/>
<image clip-path="url(#c1)" preserveAspectRatio="none" x="51" y="813" width="711" height="507" xlink:href="img/3.jpg"/>
<image clip-path="url(#c2)" preserveAspectRatio="none" x="51" y="677" width="711" height="506" xlink:href="img/4.jpg"/>
<path fill-rule="evenodd" d="M59.1,350.3c0,-30.6,.3,-44.9,28.3,-44.9H726.8c27.9,0,26.7,10.1,26.7,40.7c0,73.9,1.4,185.6,-.5,257.4c0,30.6,-7.9,38.7,-35.7,38.7L91.4,638c-27.9,0,-32.3,2.5,-32.3,-28.2c-.3,-77.7,.3,-181.8,0,-259.5Z" class="g0"/>
<path d="M59.1,350.3c0,-30.6,.3,-44.9,28.3,-44.9H726.8c27.9,0,26.7,10.1,26.7,40.7c0,73.9,1.4,185.6,-.5,257.4c0,30.6,-7.9,38.7,-35.7,38.7L91.4,638c-27.9,0,-32.3,2.5,-32.3,-28.2c-.3,-77.7,.3,-181.8,0,-259.5Z" class="g2"/>
<g clip-path="url(#c0)">
<image preserveAspectRatio="none" x="79" y="356" width="43" height="55" xlink:href="img/5.png"/>
<image preserveAspectRatio="none" x="74" y="565" width="45" height="45" xlink:href="img/6.png"/>
<image preserveAspectRatio="none" x="76" y="438" width="44" height="44" xlink:href="img/7.jpg"/>
<image preserveAspectRatio="none" x="74" y="504" width="43" height="43" xlink:href="img/8.jpg"/>
</g>
<path fill-rule="evenodd" d="M61.1,76.9c0,-23.4,.3,-34.3,28.2,-34.3H728.8c27.9,0,26.6,7.7,26.6,31.1c0,56.6,1.5,142,-.4,196.9c0,23.5,-7.9,29.6,-35.8,29.6L93.4,297c-27.9,0,-32.3,1.9,-32.3,-21.6c-.3,-59.4,.3,-139,0,-198.5Z" class="g0"/>
<path d="M61.1,76.9c0,-23.4,.3,-34.3,28.2,-34.3H728.8c27.9,0,26.6,7.7,26.6,31.1c0,56.6,1.5,142,-.4,196.9c0,23.5,-7.9,29.6,-35.8,29.6L93.4,297c-27.9,0,-32.3,1.9,-32.3,-21.6c-.3,-59.4,.3,-139,0,-198.5Z" class="g2"/>
<path d="M76.5,202.5H719.1" class="g3"/>
<g clip-path="url(#c0)">
<image preserveAspectRatio="none" x="76" y="176" width="56" height="26" xlink:href="img/9.jpg"/>
<image preserveAspectRatio="none" x="81" y="269" width="68" height="21" xlink:href="img/10.png"/>
</g>
</svg>