<?xml version="1.0" encoding="UTF-8" standalone="no"?>
<!DOCTYPE svg PUBLIC "-//W3C//DTD SVG 1.1//EN"
"http://www.w3.org/Graphics/SVG/1.1/DTD/svg11.dtd">
<svg viewBox="0 0 825 1191" version="1.1" xmlns="http://www.w3.org/2000/svg" xmlns:xlink="http://www.w3.org/1999/xlink">
<defs>
<clipPath id="c0_1"><path d="M723.2,354.6L97.4,350.7c-3.9,0,-7.3,.1,-10.4,.1c-18.7,0,-22,-1.7,-22,-25.7c-.3,-70.9,.3,-165.6,0,-236.5C65,60.7,65.4,47.7,93.3,47.7H732.8c27.9,0,26.6,9.2,26.6,37.1c0,67.3,1.4,169.1,-.5,234.6c0,27.9,-7.8,35.2,-35.7,35.2Z"/></clipPath>
<clipPath id="c1_1"><path d="M705.8,246.4V216.9H737v29.5Z"/></clipPath>
<clipPath id="c2_1"><path d="M445.7,282.1V262.2h48.4v19.9Z"/></clipPath>
<clipPath id="c3_1"><path d="M452.7,328.5V292.4h28.2v36.1Z"/></clipPath>
<clipPath id="c4_1"><path d="M85.4,745.8v-207H396.2v207Z"/></clipPath>
<clipPath id="c5_1"><path d="M0,36.7V0H825V36.7Z"/></clipPath>
<style type="text/css"><![CDATA[
.g0_1{
fill: #E7E6E6;
}
.g1_1{
fill: #FFFFFF;
}
.g2_1{
fill: #FF0000;
}
.g3_1{
fill: none;
stroke: #FFFFFF;
stroke-width: 1.527;
stroke-linecap: butt;
stroke-linejoin: miter;
stroke-miterlimit: 8;
}
.g4_1{
fill: #4472C4;
}
.g5_1{
fill: none;
stroke: #0070C0;
stroke-width: 1.527;
stroke-linecap: butt;
stroke-linejoin: miter;
stroke-miterlimit: 8;
}
.g6_1{
fill: none;
stroke: #A6A6A6;
stroke-width: 1.527;
stroke-linecap: butt;
stroke-linejoin: miter;
stroke-miterlimit: 8;
}
.g7_1{
fill: none;
stroke: #D0CECE;
stroke-width: 0.381;
stroke-linecap: butt;
stroke-linejoin: miter;
stroke-miterlimit: 8;
}
.g8_1{
fill: #F1F1F1;
}
]]></style>
</defs>
<path d="M0,1191.7H825V0H0V1191.7Z" class="g0_1"/>
<image clip-path="url(#c0_1)" preserveAspectRatio="none" x="65" y="48" width="695" height="307" xlink:href="img/1.jpg"/>
<path fill-rule="evenodd" d="M62.7,205.9H759.9V319.3h-.1l.1,9.9c.1,32.8,0,65.5,-1,91c0,21.8,-7.8,27.5,-35.8,27.5l-627.8,-3c-28,0,-32.5,1.8,-32.5,-20c-.2,-27.7,-.1,-60,0,-92.3V319.3h-.1Z" class="g1_1"/>
<image preserveAspectRatio="none" x="101" y="140" width="112" height="112" xlink:href="img/2.png"/>
<path fill-rule="evenodd" d="M189,243.3c0,-6.1,4.9,-11,11,-11c6.1,0,11,4.9,11,11c0,6.1,-4.9,11,-11,11c-6.1,0,-11,-4.9,-11,-11Z" class="g2_1"/>
<path d="M189,243.3c0,-6.1,4.9,-11,11,-11c6.1,0,11,4.9,11,11c0,6.1,-4.9,11,-11,11c-6.1,0,-11,-4.9,-11,-11Z" class="g3_1"/>
<image clip-path="url(#c1_1)" preserveAspectRatio="none" x="706" y="217" width="31" height="29" xlink:href="img/3.jpg"/>
<image clip-path="url(#c2_1)" preserveAspectRatio="none" x="446" y="262" width="48" height="20" xlink:href="img/4.png"/>
<path fill-rule="evenodd" d="M93.9,403.5h49.4c8.4,0,15.1,6.2,15.1,13.8c0,7.6,-6.7,13.7,-15.1,13.7H93.9c-8.3,0,-15.1,-6.1,-15.1,-13.7c0,-7.6,6.8,-13.8,15.1,-13.8Z" class="g4_1"/>
<path d="M93.9,403.5h49.4c8.4,0,15.1,6.2,15.1,13.8c0,7.6,-6.7,13.7,-15.1,13.7H93.9c-8.3,0,-15.1,-6.1,-15.1,-13.7c0,-7.6,6.8,-13.8,15.1,-13.8Z" class="g5_1"/>
<path fill-rule="evenodd" d="M183.9,403.5h49.3c8.3,0,15,6.2,15,13.8c0,7.6,-6.7,13.7,-15,13.7H183.9c-8.3,0,-15.1,-6.1,-15.1,-13.7c0,-7.6,6.8,-13.8,15.1,-13.8Z" class="g1_1"/>
<path d="M183.9,403.5h49.3c8.3,0,15,6.2,15,13.8c0,7.6,-6.7,13.7,-15,13.7H183.9c-8.3,0,-15.1,-6.1,-15.1,-13.7c0,-7.6,6.8,-13.8,15.1,-13.8Z" class="g6_1"/>
<path fill-rule="evenodd" d="M58.9,871.2c0,-32.9,.4,-48.2,28.3,-48.2H726.6c27.9,0,26.6,10.8,26.6,43.7c0,79.2,1.4,199,-.5,276c0,32.8,-7.8,41.5,-35.7,41.5L91.3,1179.6c-27.9,0,-32.4,2.7,-32.4,-30.1c-.3,-83.4,.4,-194.9,0,-278.3Z" class="g1_1"/>
<path d="M58.9,871.2c0,-32.9,.4,-48.2,28.3,-48.2H726.6c27.9,0,26.6,10.8,26.6,43.7c0,79.2,1.4,199,-.5,276c0,32.8,-7.8,41.5,-35.7,41.5L91.3,1179.6c-27.9,0,-32.4,2.7,-32.4,-30.1c-.3,-83.4,.4,-194.9,0,-278.3Z" class="g7_1"/>
<image clip-path="url(#c3_1)" preserveAspectRatio="none" x="453" y="292" width="28" height="37" xlink:href="img/5.png"/>
<path fill-rule="evenodd" d="M61.7,510c0,-31.6,.4,-46.4,28.3,-46.4H729.5c27.9,0,26.6,10.5,26.6,42.1c0,76.2,1.4,191.3,-.5,265.3c0,31.6,-7.8,39.9,-35.7,39.9L94.1,806.6c-28,0,-32.4,2.5,-32.4,-29.1C61.4,697.4,62,590.1,61.7,510Z" class="g1_1"/>
<path d="M61.7,510c0,-31.6,.4,-46.4,28.3,-46.4H729.5c27.9,0,26.6,10.5,26.6,42.1c0,76.2,1.4,191.3,-.5,265.3c0,31.6,-7.8,39.9,-35.7,39.9L94.1,806.6c-28,0,-32.4,2.5,-32.4,-29.1C61.4,697.4,62,590.1,61.7,510Z" class="g7_1"/>
<path fill-rule="evenodd" d="M73.7,546.8c0,-25.4,.2,-37.3,13.6,-37.3h306c13.3,0,12.7,8.4,12.7,33.8c0,61.4,.7,154.1,-.2,213.7c0,25.4,-3.7,32.1,-17.1,32.1L89.2,785.6c-13.3,0,-15.5,2,-15.5,-23.4c-.1,-64.5,.2,-150.9,0,-215.4Z" class="g1_1"/>
<path d="M73.7,546.8c0,-25.4,.2,-37.3,13.6,-37.3h306c13.3,0,12.7,8.4,12.7,33.8c0,61.4,.7,154.1,-.2,213.7c0,25.4,-3.7,32.1,-17.1,32.1L89.2,785.6c-13.3,0,-15.5,2,-15.5,-23.4c-.1,-64.5,.2,-150.9,0,-215.4Z" class="g7_1"/>
<image clip-path="url(#c4_1)" preserveAspectRatio="none" x="85" y="539" width="311" height="207" xlink:href="img/6.jpg"/>
<path fill-rule="evenodd" d="M73.5,703.1H406.3v42.8h-.1v3.8c.1,12.3,0,24.7,-.4,34.3c0,8.2,-3.7,10.4,-17.1,10.4L89.1,793.3c-13.4,0,-15.5,.6,-15.5,-7.6c-.1,-10.4,-.1,-22.6,0,-34.9v-4.9h-.1Z" class="g8_1"/>
<image clip-path="url(#c5_1)" preserveAspectRatio="none" x="0" y="0" width="825" height="37" xlink:href="img/7.png"/>
<path fill-rule="evenodd" d="M664,18c0,-5.9,4.8,-10.7,10.6,-10.7c5.8,0,10.5,4.8,10.5,10.7c0,5.8,-4.7,10.6,-10.5,10.6C668.8,28.6,664,23.8,664,18Z" class="g1_1"/>
</svg>