<?xml version="1.0" encoding="UTF-8" standalone="no"?>
<!DOCTYPE svg PUBLIC "-//W3C//DTD SVG 1.1//EN"
"http://www.w3.org/Graphics/SVG/1.1/DTD/svg11.dtd">
<svg viewBox="0 0 825 1191" version="1.1" xmlns="http://www.w3.org/2000/svg" xmlns:xlink="http://www.w3.org/1999/xlink">
<defs>
<clipPath id="c0_1"><path d="M0,1191.6V0H825V1191.6Z"/></clipPath>
<clipPath id="c1_1"><path d="M723.1,354.6L97.3,350.7c-3.9,0,-7.3,.1,-10.4,.1c-18.7,0,-22,-1.7,-22,-25.7c-.3,-70.8,.3,-165.6,0,-236.5c0,-27.9,.4,-40.9,28.3,-40.9H732.7c27.9,0,26.6,9.2,26.6,37.1c0,67.3,1.4,169.1,-.5,234.5c0,28,-7.8,35.3,-35.7,35.3Z"/></clipPath>
<clipPath id="c2_1"><path d="M705.8,246.4V216.8H737v29.6Z"/></clipPath>
<style type="text/css"><![CDATA[
.g0_1{
fill: #FFFFFF;
}
.g1_1{
fill: #E7E6E6;
}
.g2_1{
fill: #4472C4;
}
.g3_1{
fill: none;
stroke: #0070C0;
stroke-width: 1.515;
stroke-linecap: butt;
stroke-linejoin: miter;
stroke-miterlimit: 3;
}
.g4_1{
fill: none;
stroke: #A6A6A6;
stroke-width: 1.515;
stroke-linecap: butt;
stroke-linejoin: miter;
stroke-miterlimit: 3;
}
.g5_1{
fill: none;
stroke: #D0CECE;
stroke-width: 0.389;
stroke-linecap: butt;
stroke-linejoin: miter;
stroke-miterlimit: 3;
}
.g6_1{
fill: #FF0000;
}
.g7_1{
fill: none;
stroke: #FFFFFF;
stroke-width: 1.515;
stroke-linecap: butt;
stroke-linejoin: miter;
stroke-miterlimit: 3;
}
.g8_1{
fill: #F2F2F2;
}
]]></style>
</defs>
<g clip-path="url(#c0_1)">
<path fill-rule="evenodd" d="M0,0H825V1191.6H0V0Z" class="g0_1"/>
<path fill-rule="evenodd" d="M0,0H825V1191.7H0V0Z" class="g1_1"/>
</g>
<image clip-path="url(#c1_1)" preserveAspectRatio="none" x="65" y="48" width="695" height="307" xlink:href="img/1.jpg"/>
<path fill-rule="evenodd" d="M62.7,205.9H759.8v98.3h-.1l.1,8.7c.1,28.4,0,56.7,-1,78.9c0,18.8,-7.8,23.8,-35.8,23.8L95.2,413c-27.9,0,-32.4,1.5,-32.4,-17.3c-.1,-24,-.1,-52.1,0,-80.1V304.2h-.1V205.9Z" class="g0_1"/>
<image clip-path="url(#c2_1)" preserveAspectRatio="none" x="664" y="206" width="81" height="50" xlink:href="img/2.jpg"/>
<image clip-path="url(#c0_1)" preserveAspectRatio="none" x="446" y="262" width="48" height="20" xlink:href="img/3.png"/>
<path fill-rule="evenodd" d="M91.9,373h49.4c8.3,0,15,6.1,15,13.7c0,7.6,-6.7,13.8,-15,13.8H91.9c-8.3,0,-15,-6.2,-15,-13.8c0,-7.6,6.7,-13.7,15,-13.7Z" class="g2_1"/>
<path d="M91.9,373h49.4c8.3,0,15,6.1,15,13.7c0,7.6,-6.7,13.8,-15,13.8H91.9c-8.3,0,-15,-6.2,-15,-13.8c0,-7.6,6.7,-13.7,15,-13.7Z" class="g3_1"/>
<path fill-rule="evenodd" d="M181.8,373h49.4c8.3,0,15,6.1,15,13.7c0,7.6,-6.7,13.8,-15,13.8H181.8c-8.3,0,-15,-6.2,-15,-13.8c0,-7.6,6.7,-13.7,15,-13.7Z" class="g0_1"/>
<path d="M181.8,373h49.4c8.3,0,15,6.1,15,13.7c0,7.6,-6.7,13.8,-15,13.8H181.8c-8.3,0,-15,-6.2,-15,-13.8c0,-7.6,6.7,-13.7,15,-13.7Z" class="g4_1"/>
<path fill-rule="evenodd" d="M59.9,828.7c0,-37.1,.3,-54.4,28.3,-54.4H727.6c27.9,0,26.7,12.2,26.7,49.4c0,89.5,1.4,224.9,-.5,311.9c0,37.2,-7.8,46.9,-35.7,46.9L92.2,1177.4c-27.9,0,-32.3,3,-32.3,-34.1c-.3,-94.3,.3,-220.3,0,-314.6Z" class="g0_1"/>
<path d="M59.9,828.7c0,-37.1,.3,-54.4,28.3,-54.4H727.6c27.9,0,26.7,12.2,26.7,49.4c0,89.5,1.4,224.9,-.5,311.9c0,37.2,-7.8,46.9,-35.7,46.9L92.2,1177.4c-27.9,0,-32.3,3,-32.3,-34.1c-.3,-94.3,.3,-220.3,0,-314.6Z" class="g5_1"/>
<path fill-rule="evenodd" d="M62.8,467.2c0,-31.6,.3,-46.3,28.2,-46.3H730.5c27.9,0,26.6,10.4,26.6,42c0,76.2,1.5,191.3,-.4,265.4c0,31.6,-7.9,39.9,-35.8,39.9L95.1,763.9c-27.9,0,-32.3,2.5,-32.3,-29.1c-.4,-80.2,.3,-187.4,0,-267.6Z" class="g0_1"/>
<path d="M62.8,467.2c0,-31.6,.3,-46.3,28.2,-46.3H730.5c27.9,0,26.6,10.4,26.6,42c0,76.2,1.5,191.3,-.4,265.4c0,31.6,-7.9,39.9,-35.8,39.9L95.1,763.9c-27.9,0,-32.3,2.5,-32.3,-29.1c-.4,-80.2,.3,-187.4,0,-267.6Z" class="g5_1"/>
<path fill-rule="evenodd" d="M74.7,504.1c0,-25.4,.2,-37.3,13.6,-37.3H394.4c13.4,0,12.8,8.4,12.8,33.8c0,61.4,.7,154,-.2,213.6c0,25.4,-3.8,32.1,-17.1,32.1L90.2,742.8c-13.3,0,-15.5,2,-15.5,-23.3c-.1,-64.6,.2,-150.9,0,-215.4Z" class="g0_1"/>
<path d="M74.7,504.1c0,-25.4,.2,-37.3,13.6,-37.3H394.4c13.4,0,12.8,8.4,12.8,33.8c0,61.4,.7,154,-.2,213.6c0,25.4,-3.8,32.1,-17.1,32.1L90.2,742.8c-13.3,0,-15.5,2,-15.5,-23.3c-.1,-64.6,.2,-150.9,0,-215.4Z" class="g5_1"/>
<image clip-path="url(#c0_1)" preserveAspectRatio="none" x="101" y="140" width="112" height="112" xlink:href="img/4.png"/>
<path fill-rule="evenodd" d="M188.9,243.2c0,-2,.6,-3.8,1.5,-5.5c1,-1.7,2.4,-3.1,4,-4.1c1.7,-.9,3.6,-1.4,5.5,-1.4c2,0,3.9,.5,5.5,1.4c1.7,1,3.1,2.4,4.1,4.1c.9,1.7,1.4,3.5,1.4,5.5c0,1.9,-.5,3.8,-1.4,5.5c-1,1.7,-2.4,3,-4.1,4c-1.6,.9,-3.5,1.5,-5.5,1.5c-1.9,0,-3.8,-.6,-5.5,-1.5c-1.6,-1,-3,-2.3,-4,-4c-.9,-1.7,-1.5,-3.6,-1.5,-5.5Z" class="g6_1"/>
<path d="M188.9,243.2c0,-2,.6,-3.8,1.5,-5.5c1,-1.7,2.4,-3.1,4,-4.1c1.7,-.9,3.6,-1.4,5.5,-1.4c2,0,3.9,.5,5.5,1.4c1.7,1,3.1,2.4,4.1,4.1c.9,1.7,1.4,3.5,1.4,5.5c0,1.9,-.5,3.8,-1.4,5.5c-1,1.7,-2.4,3,-4.1,4c-1.6,.9,-3.5,1.5,-5.5,1.5c-1.9,0,-3.8,-.6,-5.5,-1.5c-1.6,-1,-3,-2.3,-4,-4c-.9,-1.7,-1.5,-3.6,-1.5,-5.5Z" class="g7_1"/>
<image clip-path="url(#c0_1)" preserveAspectRatio="none" x="87" y="496" width="310" height="207" xlink:href="img/5.jpg"/>
<path fill-rule="evenodd" d="M74.6,660.3H407.3v46.5c0,12.4,0,24.7,-.4,34.3c0,8.2,-3.8,10.4,-17.1,10.4L90.1,750.3c-13.3,0,-15.4,.7,-15.4,-7.5c-.1,-10.4,-.1,-22.6,0,-34.8v-5h-.1V660.3Z" class="g8_1"/>
<image clip-path="url(#c0_1)" preserveAspectRatio="none" x="0" y="0" width="825" height="37" xlink:href="img/6.png"/>
<path fill-rule="evenodd" d="M664,17.9c0,-1.8,.5,-3.7,1.5,-5.3c.9,-1.6,2.2,-2.9,3.8,-3.9c1.6,-.9,3.5,-1.3,5.3,-1.3c1.9,0,3.7,.4,5.3,1.3c1.6,1,3,2.3,3.9,3.9c.9,1.6,1.4,3.5,1.4,5.3c0,1.9,-.5,3.7,-1.4,5.3c-.9,1.6,-2.3,3,-3.9,3.9c-1.6,.9,-3.4,1.4,-5.3,1.4c-1.8,0,-3.7,-.5,-5.3,-1.4c-1.6,-.9,-2.9,-2.3,-3.8,-3.9c-1,-1.6,-1.5,-3.4,-1.5,-5.3Z" class="g0_1"/>
<image clip-path="url(#c0_1)" preserveAspectRatio="none" x="445" y="297" width="46" height="46" xlink:href="img/7.jpg"/>
</svg>