<?xml version="1.0" encoding="UTF-8" standalone="no"?>
<!DOCTYPE svg PUBLIC "-//W3C//DTD SVG 1.1//EN"
"http://www.w3.org/Graphics/SVG/1.1/DTD/svg11.dtd">
<svg viewBox="0 0 825 1191" version="1.1" xmlns="http://www.w3.org/2000/svg" xmlns:xlink="http://www.w3.org/1999/xlink">
<defs>
<clipPath id="c0_1"><path d="M64.9,268.6c0,-59.9,.3,-126.7,.1,-180C65,60.7,65.4,47.7,93.3,47.7H732.8c27.9,0,26.6,9.2,26.6,37.1c0,51.7,.8,123.6,.4,183.8Z"/></clipPath>
<clipPath id="c1_1"><path d="M705.8,246.4V216.9H737v29.5Z"/></clipPath>
<clipPath id="c2_1"><path d="M445.7,282.1V262.2h48.4v19.9Z"/></clipPath>
<clipPath id="c3_1"><path d="M86.5,704.6V494.5H397.3V704.6Z"/></clipPath>
<clipPath id="c4_1"><path d="M0,36.7V0H825V36.7Z"/></clipPath>
<clipPath id="c5_1"><path d="M452.7,329.3V294.6h34.4v34.7Z"/></clipPath>
<style type="text/css"><![CDATA[
.g0_1{
fill: #F3F2EF;
}
.g1_1{
fill: #FFFFFF;
}
.g2_1{
fill: #FF0000;
}
.g3_1{
fill: none;
stroke: #FFFFFF;
stroke-width: 1.527;
stroke-linecap: butt;
stroke-linejoin: miter;
stroke-miterlimit: 8;
}
.g4_1{
fill: #4472C4;
}
.g5_1{
fill: none;
stroke: #0070C0;
stroke-width: 1.527;
stroke-linecap: butt;
stroke-linejoin: miter;
stroke-miterlimit: 8;
}
.g6_1{
fill: none;
stroke: #A6A6A6;
stroke-width: 1.527;
stroke-linecap: butt;
stroke-linejoin: miter;
stroke-miterlimit: 8;
}
.g7_1{
fill: none;
stroke: #D0CECE;
stroke-width: 0.381;
stroke-linecap: butt;
stroke-linejoin: miter;
stroke-miterlimit: 8;
}
.g8_1{
fill: #F1F1F1;
}
]]></style>
</defs>
<path d="M0,1191.7H825V0H0V1191.7Z" class="g0_1"/>
<image clip-path="url(#c0_1)" preserveAspectRatio="none" x="65" y="-37" width="695" height="306" xlink:href="img/1.jpg"/>
<path fill-rule="evenodd" d="M62.7,205.9H759.9v97h-.1l.1,8.5c.1,28,0,55.9,-1,77.8c0,18.6,-7.8,23.5,-35.8,23.5L95.3,410.1c-28,0,-32.5,1.5,-32.5,-17.1c-.2,-23.6,-.1,-51.3,0,-78.9V302.9h-.1Z" class="g1_1"/>
<image preserveAspectRatio="none" x="101" y="140" width="112" height="112" xlink:href="img/2.png"/>
<path fill-rule="evenodd" d="M189,243.3c0,-6.1,4.9,-11,11,-11c6.1,0,11,4.9,11,11c0,6.1,-4.9,11,-11,11c-6.1,0,-11,-4.9,-11,-11Z" class="g2_1"/>
<path d="M189,243.3c0,-6.1,4.9,-11,11,-11c6.1,0,11,4.9,11,11c0,6.1,-4.9,11,-11,11c-6.1,0,-11,-4.9,-11,-11Z" class="g3_1"/>
<image clip-path="url(#c1_1)" preserveAspectRatio="none" x="706" y="217" width="31" height="29" xlink:href="img/3.jpg"/>
<image clip-path="url(#c2_1)" preserveAspectRatio="none" x="446" y="262" width="48" height="20" xlink:href="img/4.png"/>
<path fill-rule="evenodd" d="M94.8,369h49.3c8.3,0,15,6.2,15,13.8c0,7.6,-6.7,13.7,-15,13.7H94.8c-8.3,0,-15.1,-6.1,-15.1,-13.7c0,-7.6,6.8,-13.8,15.1,-13.8Z" class="g4_1"/>
<path d="M94.8,369h49.3c8.3,0,15,6.2,15,13.8c0,7.6,-6.7,13.7,-15,13.7H94.8c-8.3,0,-15.1,-6.1,-15.1,-13.7c0,-7.6,6.8,-13.8,15.1,-13.8Z" class="g5_1"/>
<path fill-rule="evenodd" d="M184.6,369h49.5c8.3,0,15.1,6.2,15.1,13.8c0,7.6,-6.8,13.7,-15.1,13.7H184.6c-8.3,0,-15,-6.1,-15,-13.7c0,-7.6,6.7,-13.8,15,-13.8Z" class="g1_1"/>
<path d="M184.6,369h49.5c8.3,0,15.1,6.2,15.1,13.8c0,7.6,-6.8,13.7,-15.1,13.7H184.6c-8.3,0,-15,-6.1,-15,-13.7c0,-7.6,6.7,-13.8,15,-13.8Z" class="g6_1"/>
<path fill-rule="evenodd" d="M58.2,845.9c0,-35.1,.4,-51.5,28.3,-51.5H725.8c27.9,0,26.6,11.6,26.6,46.7c0,84.7,1.5,212.8,-.4,295.1c0,35.1,-7.8,44.3,-35.7,44.3L90.6,1175.7c-27.9,0,-32.4,2.8,-32.4,-32.3c-.3,-89.1,.3,-208.4,0,-297.5Z" class="g1_1"/>
<path d="M58.2,845.9c0,-35.1,.4,-51.5,28.3,-51.5H725.8c27.9,0,26.6,11.6,26.6,46.7c0,84.7,1.5,212.8,-.4,295.1c0,35.1,-7.8,44.3,-35.7,44.3L90.6,1175.7c-27.9,0,-32.4,2.8,-32.4,-32.3c-.3,-89.1,.3,-208.4,0,-297.5Z" class="g7_1"/>
<path fill-rule="evenodd" d="M62.8,467.7c0,-33.9,.4,-49.7,28.3,-49.7H730.6c27.9,0,26.6,11.2,26.6,45c0,81.8,1.4,205.2,-.5,284.6c0,33.9,-7.8,42.8,-35.7,42.8L95.2,785.7c-28,0,-32.4,2.7,-32.4,-31.1c-.3,-86,.3,-200.9,0,-286.9Z" class="g1_1"/>
<path d="M62.8,467.7c0,-33.9,.4,-49.7,28.3,-49.7H730.6c27.9,0,26.6,11.2,26.6,45c0,81.8,1.4,205.2,-.5,284.6c0,33.9,-7.8,42.8,-35.7,42.8L95.2,785.7c-28,0,-32.4,2.7,-32.4,-31.1c-.3,-86,.3,-200.9,0,-286.9Z" class="g7_1"/>
<path fill-rule="evenodd" d="M74.7,502.5c0,-25.9,.1,-37.9,13.5,-37.9H394.4c13.3,0,12.7,8.5,12.7,34.3c0,62.3,.7,156.5,-.2,217.1c0,25.8,-3.7,32.6,-17.1,32.6L90.2,745c-13.4,0,-15.5,2.1,-15.5,-23.7c-.2,-65.6,.1,-153.3,0,-218.8Z" class="g1_1"/>
<path d="M74.7,502.5c0,-25.9,.1,-37.9,13.5,-37.9H394.4c13.3,0,12.7,8.5,12.7,34.3c0,62.3,.7,156.5,-.2,217.1c0,25.8,-3.7,32.6,-17.1,32.6L90.2,745c-13.4,0,-15.5,2.1,-15.5,-23.7c-.2,-65.6,.1,-153.3,0,-218.8Z" class="g7_1"/>
<image clip-path="url(#c3_1)" preserveAspectRatio="none" x="87" y="494" width="310" height="211" xlink:href="img/5.jpg"/>
<path fill-rule="evenodd" d="M74.6,661.1H407.4v48.6h-.1v4.2c.1,14.1,0,28.1,-.4,39c0,9.3,-3.7,11.8,-17.1,11.8L90.2,763.4c-13.4,0,-15.5,.8,-15.5,-8.6c-.1,-11.8,-.1,-25.7,0,-39.5v-5.6h-.1Z" class="g8_1"/>
<image clip-path="url(#c4_1)" preserveAspectRatio="none" x="0" y="0" width="825" height="37" xlink:href="img/6.png"/>
<path fill-rule="evenodd" d="M664,18c0,-5.9,4.8,-10.7,10.6,-10.7c5.8,0,10.5,4.8,10.5,10.7c0,5.8,-4.7,10.6,-10.5,10.6C668.8,28.6,664,23.8,664,18Z" class="g1_1"/>
<image clip-path="url(#c5_1)" preserveAspectRatio="none" x="453" y="295" width="34" height="34" xlink:href="img/7.jpg"/>
</svg>